<?xml version="1.0" encoding="utf-8"?>
<!-- Generator: Adobe Illustrator 24.3.0, SVG Export Plug-In . SVG Version: 6.00 Build 0)  -->
<svg version="1.1" baseProfile="basic" id="Illustration"
	 xmlns="http://www.w3.org/2000/svg" xmlns:xlink="http://www.w3.org/1999/xlink" x="0px" y="0px" viewBox="0 0 1200 800"
	 xml:space="preserve">
<style type="text/css">
	.st0{opacity:0.24;fill:url(#SVGID_1_);}
	.st1{fill:url(#SVGID_2_);}
	.st2{fill:url(#SVGID_3_);}
	.st3{fill:#FFFFFF;}
	.st4{opacity:0.37;fill:#FFFFFF;}
	.st5{fill:url(#SVGID_4_);}
	.st6{opacity:0.27;fill:#FFFFFF;}
	.st7{fill:url(#SVGID_5_);}
	.st8{fill:url(#SVGID_6_);}
	.st9{fill:url(#SVGID_7_);}
	.st10{fill:url(#SVGID_8_);}
	.st11{fill:#F0F0F0;}
	.st12{opacity:0.55;}
	.st13{fill:url(#SVGID_9_);}
	.st14{fill:url(#SVGID_10_);}
	.st15{fill:url(#SVGID_11_);}
	.st16{fill:url(#SVGID_12_);}
	.st17{fill:url(#SVGID_13_);}
	.st18{fill:url(#SVGID_14_);}
	.st19{fill:url(#SVGID_15_);}
	.st20{fill:url(#SVGID_16_);}
	.st21{fill:url(#SVGID_17_);}
	.st22{fill:url(#SVGID_18_);}
	.st23{fill:url(#SVGID_19_);}
	.st24{fill:url(#SVGID_20_);}
	.st25{fill:url(#SVGID_21_);}
	.st26{fill:url(#SVGID_22_);}
	.st27{fill:url(#SVGID_23_);}
	.st28{fill:url(#SVGID_24_);}
	.st29{fill:url(#SVGID_25_);}
	.st30{fill:url(#SVGID_26_);}
	.st31{fill:url(#SVGID_27_);}
	.st32{fill:url(#SVGID_28_);}
	.st33{fill:url(#SVGID_29_);}
	.st34{fill:url(#SVGID_30_);}
	.st35{fill:url(#SVGID_31_);}
	.st36{fill:url(#SVGID_32_);}
	.st37{fill:url(#SVGID_33_);}
	.st38{fill:url(#SVGID_34_);}
	.st39{fill:url(#SVGID_35_);}
	.st40{fill:url(#SVGID_36_);}
	.st41{fill:url(#SVGID_37_);}
	.st42{fill:url(#SVGID_38_);}
	.st43{fill:url(#SVGID_39_);}
	.st44{fill:url(#SVGID_40_);}
	.st45{fill:url(#SVGID_41_);}
	.st46{fill:url(#SVGID_42_);}
	.st47{fill:url(#SVGID_43_);}
	.st48{fill:url(#SVGID_44_);}
	.st49{fill:url(#SVGID_45_);}
	.st50{fill:url(#SVGID_46_);}
	.st51{fill:url(#SVGID_47_);}
	.st52{fill:url(#SVGID_48_);}
	.st53{fill:url(#SVGID_49_);}
	.st54{fill:url(#SVGID_50_);}
	.st55{fill:url(#SVGID_51_);}
	.st56{fill:url(#SVGID_52_);}
	.st57{fill:url(#SVGID_53_);}
	.st58{fill:url(#SVGID_54_);}
	.st59{fill:url(#SVGID_55_);}
	.st60{fill:url(#SVGID_56_);}
	.st61{fill:url(#SVGID_57_);}
	.st62{opacity:0.78;}
	.st63{fill:url(#SVGID_58_);}
	.st64{fill:url(#SVGID_59_);}
	.st65{fill:url(#SVGID_60_);}
	.st66{fill:url(#SVGID_61_);}
	.st67{fill:url(#SVGID_62_);}
	.st68{fill:url(#SVGID_63_);}
	.st69{fill:url(#SVGID_64_);}
	.st70{fill:url(#SVGID_65_);}
	.st71{fill:url(#SVGID_66_);}
	.st72{fill:url(#SVGID_67_);}
	.st73{fill:url(#SVGID_68_);}
	.st74{fill:url(#SVGID_69_);}
	.st75{fill:url(#SVGID_70_);}
	.st76{fill:url(#SVGID_71_);}
	.st77{fill:url(#SVGID_72_);}
	.st78{fill:#666694;}
	.st79{fill:url(#SVGID_73_);}
	.st80{fill:url(#SVGID_74_);}
	.st81{fill:url(#SVGID_75_);}
	.st82{fill:url(#SVGID_76_);}
	.st83{fill:url(#SVGID_77_);}
	.st84{fill:url(#SVGID_78_);}
	.st85{fill:url(#SVGID_79_);}
	.st86{fill:url(#SVGID_80_);}
	.st87{fill:url(#SVGID_81_);}
	.st88{fill:url(#SVGID_82_);}
	.st89{opacity:0.81;fill:#FFFFFF;}
	.st90{fill:#A6E036;}
	.st91{fill:url(#SVGID_83_);}
	.st92{fill:url(#SVGID_84_);}
	.st93{fill:url(#SVGID_85_);}
	.st94{fill:url(#SVGID_86_);}
	.st95{fill:url(#SVGID_87_);}
	.st96{fill:url(#SVGID_88_);}
	.st97{fill:url(#SVGID_89_);}
	.st98{fill:url(#SVGID_90_);}
	.st99{fill:url(#SVGID_91_);}
	.st100{fill:url(#SVGID_92_);}
	.st101{fill:url(#SVGID_93_);}
	.st102{fill:url(#SVGID_94_);}
	.st103{fill:url(#SVGID_95_);}
	.st104{fill:url(#SVGID_96_);}
	.st105{fill:url(#SVGID_97_);}
	.st106{fill:url(#SVGID_98_);}
	.st107{fill:url(#SVGID_99_);}
	.st108{fill:url(#SVGID_100_);}
	.st109{fill:url(#SVGID_101_);}
	.st110{fill:url(#SVGID_102_);}
	.st111{fill:url(#SVGID_103_);}
	.st112{fill:url(#SVGID_104_);}
	.st113{fill:url(#SVGID_105_);}
	.st114{fill:url(#SVGID_106_);}
	.st115{opacity:0.68;}
</style>
<g>
	<linearGradient id="SVGID_1_" gradientUnits="userSpaceOnUse" x1="435.2913" y1="-47.7895" x2="758.273" y2="867.6581">
		<stop  offset="0" style="stop-color:#B37CFF"/>
		<stop  offset="1" style="stop-color:#F895E7"/>
	</linearGradient>
	<path class="st0" d="M1123.1,185.13c-28.29-52.53-90.41-92.03-150.87-79.91c-36.2,7.26-72.18,31.6-106.9,19.38
		c-25.02-8.81-39.14-33.79-60.17-49.47c-32.37-24.13-78.32-23.84-117.77-13.04c-39.45,10.81-75.56,30.69-114.53,42.98
		c-66.42,20.94-140.55,18.67-205.44-6.3c-28.48-10.96-55.14-26.09-84.14-35.74c-29-9.65-61.88-13.4-89.87-1.33
		c-27.99,12.07-48.07,43.64-38.36,71.5c1.94,5.55,4.97,11.03,4.58,16.87c-0.64,9.37-10.1,16.23-19.67,18.32
		c-9.57,2.08-19.55,0.72-29.36,0.96c-44.04,1.07-83.39,39.5-83.6,81.63c-0.17,34.94,22.36,65.65,41.62,95.34
		c19.26,29.69,36.57,65.32,25.1,98.49c-6.8,19.67-22.76,35.06-33.22,53.21c-27.11,47.04-12.62,109.32,25.24,149
		c37.85,39.68,94.54,59.1,150.49,63.72c55.95,4.62,112.06-4.06,167.5-12.63c55.44-8.58,111.59-17.11,167.52-12.19l-3.01-1.56
		c109.25,25.82,223.54,32.02,335.14,18.18c23.36-2.9,50.19-9.13,60.06-29.59c8.34-17.27,0.85-37.52,2.57-56.48
		c2.47-27.32,23.9-49.69,47.27-65.58c23.37-15.88,49.87-27.7,70.93-46.31c41.18-36.4,55.16-92.75,61.3-146.07
		C1152.26,299.77,1151.39,237.66,1123.1,185.13z"/>
	<g>
		<linearGradient id="SVGID_2_" gradientUnits="userSpaceOnUse" x1="516.0718" y1="661.7631" x2="715.8047" y2="62.5626">
			<stop  offset="0" style="stop-color:#2B3582"/>
			<stop  offset="1" style="stop-color:#150E42"/>
		</linearGradient>
		<path class="st1" d="M1031.8,683.5c0,8.59-7.04,15.62-15.64,15.62H170.47c-8.6,0-15.64-7.03-15.64-15.62l-7.04-485.99
			c0-8.59,10.12-25.37,28.68-24.11l826.5-21.39c10.79-0.28,21.23,3.87,28.87,11.49c7.64,7.62,11.82,18.03,11.57,28.81L1031.8,683.5z
			"/>
		<linearGradient id="SVGID_3_" gradientUnits="userSpaceOnUse" x1="961.474" y1="23.1428" x2="-140.2516" y2="1281.5009">
			<stop  offset="0" style="stop-color:#FDF53F"/>
			<stop  offset="1" style="stop-color:#D93C65"/>
		</linearGradient>
		<path class="st2" d="M1016.36,668.51c0,8.14-6.66,14.8-14.8,14.8h-810.7c-8.14,0-14.8-6.66-14.8-14.8l-6.64-441.19
			c0.78-26.55,24.06-36.09,38.17-35.53l792.12-21.25c7.58-0.2,14.91,2.72,20.28,8.07c5.37,5.36,8.32,12.69,8.13,20.27
			L1016.36,668.51z"/>
		<g>
			<path class="st3" d="M184.83,457.75c-0.55,0-0.99-0.44-1-0.99l-0.53-35.78c-0.01-0.55,0.43-1.01,0.99-1.01
				c0.53,0.04,1.01,0.43,1.01,0.99l0.53,35.78c0.01,0.55-0.43,1.01-0.99,1.01C184.84,457.75,184.84,457.75,184.83,457.75z"/>
			<path class="st3" d="M183.55,370.07c-0.55,0-0.99-0.44-1-0.99l-2.01-137.04c0.04-9.09,2.84-16.36,8.32-21.61
				c9.98-9.56,25.62-9.08,26.28-9.06l252.97-6.79c0.56-0.01,1.01,0.42,1.03,0.97c0.02,0.55-0.42,1.01-0.97,1.03l-253.03,6.79
				c-0.7-0.02-15.51-0.48-24.89,8.5c-5.07,4.86-7.67,11.64-7.7,20.15l2.01,137.02c0.01,0.55-0.43,1.01-0.99,1.01
				C183.56,370.07,183.55,370.07,183.55,370.07z"/>
		</g>
		<path class="st4" d="M211.79,644.04c0.85-36.46,0.53-359.37-1.56-387.26c-2.09-27.89,41.34-33.12,108.02-36.26
			c66.68-3.14,629.31-15.56,643.8-16.74c32.56-2.64,39.3,46.03,36.04,151.69c-2.45,79.38-6.5,210.15-8.37,270.29
			c-0.56,17.91-15.19,32.11-33.11,32.16c-135.39,0.37-654.31,1.86-688.85,2.89C228.01,662,211.45,658.5,211.79,644.04z"/>
	</g>
	<linearGradient id="SVGID_4_" gradientUnits="userSpaceOnUse" x1="980.0866" y1="626.123" x2="92.3986" y2="842.047">
		<stop  offset="0" style="stop-color:#2B3582"/>
		<stop  offset="1" style="stop-color:#150E42"/>
	</linearGradient>
	<path class="st5" d="M1092.9,739.47H110.88c-4.13,0-7.51-3.38-7.51-7.51v-27.69c0-4.13,3.38-7.51,7.51-7.51h982.02
		c4.13,0,7.51,3.38,7.51,7.51v27.69C1100.4,736.09,1097.03,739.47,1092.9,739.47z"/>
	<path class="st6" d="M965.23,677c26.81,0,48.34-19,47.6-42.01c-8.59-268.58-28.31-358.25-51.27-359.46
		c-43.42-2.3-95.23,311.96-144.9,308.47c-38.9-2.74-44.81-198.08-65.21-197.8c-23.93,0.34-23.46,269.13-62.31,271.97
		c-46.64,3.41-103.61-379.86-170.99-377.93c-60.64,1.73-78.31,313.99-133.31,314.35c-53.76,0.36-78.74-297.7-128.96-297.87
		c-18.93-0.06-46.64,108.29-81.46,334.03c-3.78,24.5,18.43,46.25,47.21,46.25H965.23z"/>
	<path class="st6" d="M221.62,677c-26.81,0-48.34-20.68-47.6-45.73c8.59-292.32,57.26-389.93,80.22-391.26
		c43.42-2.51,39.39,338.36,89.07,334.56c26.74-2.05,34.73-214.72,65.83-215.5c33.78-0.84,50.9,251.09,97.59,252.75
		c56.77,2.01,106.08-367.71,156.45-365.15c47.79,2.43,47.31,337.39,120.83,343.87c47.71,4.21,75.85-134.41,140.96-132.36
		c53.29,1.68,119.96,97.22,87.46,168.48c-10.97,24.06-30.92,40.23-47.21,50.34H221.62z"/>
	<g>
		
			<linearGradient id="SVGID_5_" gradientUnits="userSpaceOnUse" x1="-2953.8623" y1="599.4522" x2="-2991.7964" y2="447.7152" gradientTransform="matrix(-1 0 0 1 -1958.584 0)">
			<stop  offset="0" style="stop-color:#B37CFF"/>
			<stop  offset="1" style="stop-color:#F895E7"/>
		</linearGradient>
		<path class="st7" d="M977.29,728.64c26.81,5.36,61.05-23.87,72.08-55.8c11.35-32.86-9.46-46.63-9.3-92.23
			c0.18-51.8,27.13-59.61,44.95-129.43c4.02-15.75,27.29-106.92-1.55-124.01c-26.67-15.8-101.58,29.54-114.71,87.58
			c-9.36,41.38,19.58,58.76,8.53,106.95c-9.7,42.29-35.19,42.9-44.95,83.7C920.45,655.09,942.09,721.61,977.29,728.64z"/>
		
			<linearGradient id="SVGID_6_" gradientUnits="userSpaceOnUse" x1="5283.9238" y1="415.0649" x2="5217.106" y2="739.2249" gradientTransform="matrix(1 0 0 1 -4247.4199 0)">
			<stop  offset="0" style="stop-color:#2B3582"/>
			<stop  offset="1" style="stop-color:#150E42"/>
		</linearGradient>
		<path class="st8" d="M979.23,741.19c-7.23-55.81,6.87-141.91,19.97-204.32c14.18-67.56,30.28-122.67,30.44-123.22l2.23,0.65
			c-0.16,0.55-16.24,55.58-30.4,123.06c-13.06,62.22-27.12,148.04-19.94,203.53L979.23,741.19z"/>
	</g>
	<g>
		
			<linearGradient id="SVGID_7_" gradientUnits="userSpaceOnUse" x1="5410.0835" y1="451.6915" x2="5132.313" y2="940.0782" gradientTransform="matrix(1 0 0 1 -4247.4199 0)">
			<stop  offset="0" style="stop-color:#A737D5"/>
			<stop  offset="1" style="stop-color:#EF497A"/>
		</linearGradient>
		<path class="st9" d="M1008.16,722.41c-35.17-18.32-47.21-81.25-27.22-101.7c13.51-13.82,32.88,0.72,51.57-13.61
			c23.86-18.29,6.31-52.73,25.07-97.4c15.96-38.01,54.26-73.99,76.63-66.61c23.42,7.73,35.76,65.05,15.76,99.55
			c-13.01,22.44-32.92,23.54-37.24,44.4c-5.01,24.21,19.2,35.25,19.34,58.73C1132.3,687.95,1054.69,746.65,1008.16,722.41z"/>
		
			<linearGradient id="SVGID_8_" gradientUnits="userSpaceOnUse" x1="5327.8257" y1="525.0292" x2="5283.4346" y2="740.3856" gradientTransform="matrix(1 0 0 1 -4247.4199 0)">
			<stop  offset="0" style="stop-color:#2B3582"/>
			<stop  offset="1" style="stop-color:#150E42"/>
		</linearGradient>
		<path class="st10" d="M1027.14,738.53c-0.21,0-0.42-0.05-0.62-0.14c-0.71-0.35-1.01-1.2-0.66-1.91
			c46.62-96.07,60.3-207.53,60.43-208.64c0.09-0.79,0.81-1.35,1.59-1.25c0.79,0.09,1.35,0.81,1.25,1.59
			c-0.13,1.12-13.86,113.05-60.7,209.55C1028.18,738.23,1027.67,738.53,1027.14,738.53z"/>
		<path class="st11" d="M1122.8,556.69c-0.15,0-0.3-0.05-0.42-0.14c-0.3-0.23-0.35-0.66-0.12-0.96
			c14.72-18.89,31.03-47.27,25.16-75.2c-3.5-16.63-13.34-25.31-13.44-25.39c-0.29-0.25-0.32-0.68-0.07-0.97
			c0.25-0.29,0.68-0.32,0.97-0.07c0.42,0.36,10.29,9.07,13.88,26.15c3.3,15.7,1.57,41.68-25.42,76.32
			C1123.2,556.6,1123,556.69,1122.8,556.69z"/>
		<path class="st11" d="M1004.99,714.02c-0.22,0-0.43-0.1-0.57-0.3c-22.62-33.01-30.33-58.51-22.92-75.8
			c6.58-15.37,23.21-18.24,23.38-18.26c0.37-0.06,0.72,0.19,0.79,0.57c0.06,0.37-0.19,0.72-0.57,0.79
			c-0.16,0.03-16.07,2.78-22.35,17.47c-7.2,16.83,0.47,41.89,22.8,74.47c0.21,0.31,0.13,0.74-0.18,0.95
			C1005.26,713.98,1005.13,714.02,1004.99,714.02z"/>
	</g>
	<g class="st12">
		<path class="st3" d="M225.25,256.16c-0.6,0-1.09,0.49-1.09,1.09v205.97c0,0.6,0.49,1.09,1.09,1.09s1.09-0.49,1.09-1.09V257.25
			C226.34,256.65,225.85,256.16,225.25,256.16z"/>
		<path class="st3" d="M227.33,293.75h-4.16c-3.96,0-7.17,3.21-7.17,7.17v126.15c0,3.96,3.21,7.17,7.17,7.17h4.16
			c3.96,0,7.17-3.21,7.17-7.17V300.92C234.5,296.96,231.29,293.75,227.33,293.75z"/>
		<path class="st3" d="M258.74,402.51c-0.6,0-1.09,0.49-1.09,1.09v142.98c0,0.6,0.49,1.09,1.09,1.09c0.6,0,1.09-0.49,1.09-1.09
			V403.6C259.84,403,259.35,402.51,258.74,402.51z"/>
		<path class="st3" d="M260.83,428.94h-4.16c-3.96,0-7.17,3.21-7.17,7.17v83.18c0,3.96,3.21,7.17,7.17,7.17h4.16
			c3.96,0,7.17-3.21,7.17-7.17V436.1C267.99,432.15,264.78,428.94,260.83,428.94z"/>
		<path class="st3" d="M292.24,466.31c-0.6,0-1.09,0.49-1.09,1.09v145.17c0,0.6,0.49,1.09,1.09,1.09c0.6,0,1.09-0.49,1.09-1.09
			V467.4C293.33,466.8,292.84,466.31,292.24,466.31z"/>
		<path class="st3" d="M294.32,548.7h-4.16c-3.96,0-7.17,3.21-7.17,7.17v29.11c0,3.96,3.21,7.17,7.17,7.17h4.16
			c3.96,0,7.17-3.21,7.17-7.17v-29.11C301.49,551.91,298.28,548.7,294.32,548.7z"/>
		<path class="st3" d="M325.73,444.5c-0.6,0-1.09,0.49-1.09,1.09v107.48c0,0.6,0.49,1.09,1.09,1.09c0.6,0,1.09-0.49,1.09-1.09V445.6
			C326.83,444.99,326.34,444.5,325.73,444.5z"/>
		<path class="st3" d="M327.82,464.64h-4.16c-3.96,0-7.17,3.21-7.17,7.17v58.97c0,3.96,3.21,7.17,7.17,7.17h4.16
			c3.96,0,7.17-3.21,7.17-7.17v-58.97C334.98,467.85,331.77,464.64,327.82,464.64z"/>
		<path class="st3" d="M359.23,373.01c-0.6,0-1.09,0.49-1.09,1.09v112.48c0,0.6,0.49,1.09,1.09,1.09c0.6,0,1.09-0.49,1.09-1.09
			V374.11C360.32,373.5,359.83,373.01,359.23,373.01z"/>
		<path class="st3" d="M361.31,394.04h-4.16c-3.96,0-7.17,3.21-7.17,7.17v62.38c0,3.96,3.21,7.17,7.17,7.17h4.16
			c3.96,0,7.17-3.21,7.17-7.17v-62.38C368.48,397.25,365.27,394.04,361.31,394.04z"/>
		<path class="st3" d="M627.16,395.23c-0.6,0-1.09,0.49-1.09,1.09v129.33c0,0.6,0.49,1.09,1.09,1.09s1.09-0.49,1.09-1.09V396.32
			C628.25,395.72,627.76,395.23,627.16,395.23z"/>
		<path class="st3" d="M629.24,419.24h-4.16c-3.96,0-7.17,3.21-7.17,7.17v73.88c0,3.96,3.21,7.17,7.17,7.17h4.16
			c3.96,0,7.17-3.21,7.17-7.17v-73.88C636.41,422.45,633.2,419.24,629.24,419.24z"/>
		<path class="st3" d="M660.65,315.59c-0.6,0-1.09,0.49-1.09,1.09v142.98c0,0.6,0.49,1.09,1.09,1.09s1.09-0.49,1.09-1.09V316.69
			C661.75,316.08,661.26,315.59,660.65,315.59z"/>
		<path class="st3" d="M662.74,342.02h-4.16c-3.96,0-7.17,3.21-7.17,7.17v83.18c0,3.96,3.21,7.17,7.17,7.17h4.16
			c3.96,0,7.17-3.21,7.17-7.17v-83.18C669.9,345.23,666.69,342.02,662.74,342.02z"/>
		<path class="st3" d="M694.15,284.13c-0.6,0-1.09,0.49-1.09,1.09v62.49c0,0.6,0.49,1.09,1.09,1.09c0.6,0,1.09-0.49,1.09-1.09
			v-62.49C695.24,284.62,694.75,284.13,694.15,284.13z"/>
		<path class="st3" d="M696.23,320.22h-4.16c-3.96,0-7.17,3.21-7.17,7.17v4.37c0,3.96,3.21,7.17,7.17,7.17h4.16
			c3.96,0,7.17-3.21,7.17-7.17v-4.37C703.4,323.43,700.19,320.22,696.23,320.22z"/>
		<path class="st3" d="M727.64,224.77c-0.6,0-1.09,0.49-1.09,1.09v107.48c0,0.6,0.49,1.09,1.09,1.09s1.09-0.49,1.09-1.09V225.87
			C728.74,225.26,728.25,224.77,727.64,224.77z"/>
		<path class="st3" d="M729.73,244.91h-4.16c-3.96,0-7.17,3.21-7.17,7.17v58.97c0,3.96,3.21,7.17,7.17,7.17h4.16
			c3.96,0,7.17-3.21,7.17-7.17v-58.97C736.89,248.12,733.68,244.91,729.73,244.91z"/>
		<path class="st3" d="M761.14,296.53c-0.6,0-1.09,0.49-1.09,1.09V410.1c0,0.6,0.49,1.09,1.09,1.09c0.6,0,1.09-0.49,1.09-1.09
			V297.62C762.23,297.02,761.74,296.53,761.14,296.53z"/>
		<path class="st3" d="M763.22,317.55h-4.16c-3.96,0-7.17,3.21-7.17,7.17v62.38c0,3.96,3.21,7.17,7.17,7.17h4.16
			c3.96,0,7.17-3.21,7.17-7.17v-62.38C770.39,320.76,767.18,317.55,763.22,317.55z"/>
		<path class="st3" d="M392.72,372.01c-0.6,0-1.09,0.49-1.09,1.09v41.99c0,0.6,0.49,1.09,1.09,1.09c0.6,0,1.09-0.49,1.09-1.09
			v-41.99C393.82,372.5,393.33,372.01,392.72,372.01z"/>
		<path class="st3" d="M395.4,380.55h-5.35c-3.63,0-6.58,2.94-6.58,6.58v1.4c0,3.63,2.94,6.58,6.58,6.58h5.35
			c3.63,0,6.58-2.94,6.58-6.58v-1.4C401.97,383.49,399.03,380.55,395.4,380.55z"/>
		<path class="st3" d="M426.22,322.02c-0.6,0-1.09,0.49-1.09,1.09v73.99c0,0.6,0.49,1.09,1.09,1.09c0.6,0,1.09-0.49,1.09-1.09
			v-73.99C427.31,322.51,426.82,322.02,426.22,322.02z"/>
		<path class="st3" d="M427.46,336.23h-2.48c-3.96,0-7.17,3.21-7.17,7.17v31.55c0,3.96,3.21,7.17,7.17,7.17h2.48
			c3.96,0,7.17-3.21,7.17-7.17v-31.55C434.63,339.43,431.42,336.23,427.46,336.23z"/>
		<path class="st3" d="M459.71,346.52c-0.6,0-1.09,0.49-1.09,1.09v180.97c0,0.6,0.49,1.09,1.09,1.09c0.6,0,1.09-0.49,1.09-1.09
			V347.61C460.81,347.01,460.32,346.52,459.71,346.52z"/>
		<path class="st3" d="M461.79,379.68h-4.16c-3.96,0-7.17,3.21-7.17,7.17v83.58c0,3.96,3.21,7.17,7.17,7.17h4.16
			c3.96,0,7.17-3.21,7.17-7.17v-83.58C468.96,382.89,465.75,379.68,461.79,379.68z"/>
		<path class="st3" d="M493.21,441.5c-0.6,0-1.09,0.49-1.09,1.09v110.48c0,0.6,0.49,1.09,1.09,1.09c0.6,0,1.09-0.49,1.09-1.09V442.6
			C494.3,441.99,493.81,441.5,493.21,441.5z"/>
		<path class="st3" d="M495.29,476.17h-4.16c-3.96,0-7.17,3.21-7.17,7.17v47.08c0,3.96,3.21,7.17,7.17,7.17h4.16
			c3.96,0,7.17-3.21,7.17-7.17v-47.08C502.46,479.38,499.25,476.17,495.29,476.17z"/>
		<path class="st3" d="M526.7,394.01c-0.6,0-1.09,0.49-1.09,1.09v205.97c0,0.6,0.49,1.09,1.09,1.09c0.6,0,1.09-0.49,1.09-1.09
			V395.11C527.8,394.5,527.31,394.01,526.7,394.01z"/>
		<path class="st3" d="M528.78,431.6h-4.16c-3.96,0-7.17,3.21-7.17,7.17v126.15c0,3.96,3.21,7.17,7.17,7.17h4.16
			c3.96,0,7.17-3.21,7.17-7.17V438.77C535.95,434.81,532.74,431.6,528.78,431.6z"/>
		<path class="st3" d="M560.2,538.99c-0.6,0-1.09,0.49-1.09,1.09v89.49c0,0.6,0.49,1.09,1.09,1.09c0.6,0,1.09-0.49,1.09-1.09v-89.49
			C561.29,539.48,560.8,538.99,560.2,538.99z"/>
		<path class="st3" d="M562.15,574.59h-4.16c-3.96,0-7.17,3.21-7.17,7.17v31.65c0,3.96,3.21,7.17,7.17,7.17h4.16
			c3.96,0,7.17-3.21,7.17-7.17v-31.65C569.32,577.79,566.11,574.59,562.15,574.59z"/>
		<path class="st3" d="M795.91,373.01c-0.6,0-1.09,0.49-1.09,1.09v112.48c0,0.6,0.49,1.09,1.09,1.09c0.6,0,1.09-0.49,1.09-1.09
			V374.11C797,373.5,796.51,373.01,795.91,373.01z"/>
		<path class="st3" d="M797.99,394.04h-4.16c-3.96,0-7.17,3.21-7.17,7.17v62.38c0,3.96,3.21,7.17,7.17,7.17h4.16
			c3.96,0,7.17-3.21,7.17-7.17v-62.38C805.16,397.25,801.95,394.04,797.99,394.04z"/>
		<path class="st3" d="M829.4,372.01c-0.6,0-1.09,0.49-1.09,1.09v41.99c0,0.6,0.49,1.09,1.09,1.09c0.6,0,1.09-0.49,1.09-1.09v-41.99
			C830.5,372.5,830.01,372.01,829.4,372.01z"/>
		<path class="st3" d="M832.07,380.55h-5.35c-3.63,0-6.58,2.94-6.58,6.58v1.4c0,3.63,2.94,6.58,6.58,6.58h5.35
			c3.63,0,6.58-2.94,6.58-6.58v-1.4C838.65,383.49,835.71,380.55,832.07,380.55z"/>
		<path class="st3" d="M862.9,322.02c-0.6,0-1.09,0.49-1.09,1.09v73.99c0,0.6,0.49,1.09,1.09,1.09s1.09-0.49,1.09-1.09v-73.99
			C863.99,322.51,863.5,322.02,862.9,322.02z"/>
		<path class="st3" d="M864.14,336.23h-2.48c-3.96,0-7.17,3.21-7.17,7.17v31.55c0,3.96,3.21,7.17,7.17,7.17h2.48
			c3.96,0,7.17-3.21,7.17-7.17v-31.55C871.31,339.43,868.1,336.23,864.14,336.23z"/>
		<path class="st3" d="M896.39,346.52c-0.6,0-1.09,0.49-1.09,1.09v180.97c0,0.6,0.49,1.09,1.09,1.09s1.09-0.49,1.09-1.09V347.61
			C897.49,347.01,897,346.52,896.39,346.52z"/>
		<path class="st3" d="M898.47,379.68h-4.16c-3.96,0-7.17,3.21-7.17,7.17v83.58c0,3.96,3.21,7.17,7.17,7.17h4.16
			c3.96,0,7.17-3.21,7.17-7.17v-83.58C905.64,382.89,902.43,379.68,898.47,379.68z"/>
		<path class="st3" d="M929.89,441.5c-0.6,0-1.09,0.49-1.09,1.09v110.48c0,0.6,0.49,1.09,1.09,1.09c0.6,0,1.09-0.49,1.09-1.09V442.6
			C930.98,441.99,930.49,441.5,929.89,441.5z"/>
		<path class="st3" d="M931.97,476.17h-4.16c-3.96,0-7.17,3.21-7.17,7.17v47.08c0,3.96,3.21,7.17,7.17,7.17h4.16
			c3.96,0,7.17-3.21,7.17-7.17v-47.08C939.14,479.38,935.93,476.17,931.97,476.17z"/>
		<path class="st3" d="M963.38,394.01c-0.6,0-1.09,0.49-1.09,1.09v205.97c0,0.6,0.49,1.09,1.09,1.09s1.09-0.49,1.09-1.09V395.11
			C964.48,394.5,963.99,394.01,963.38,394.01z"/>
		<path class="st3" d="M965.46,431.6h-4.16c-3.96,0-7.17,3.21-7.17,7.17v126.15c0,3.96,3.21,7.17,7.17,7.17h4.16
			c3.96,0,7.17-3.21,7.17-7.17V438.77C972.63,434.81,969.42,431.6,965.46,431.6z"/>
		<path class="st3" d="M996.88,538.99c-0.6,0-1.09,0.49-1.09,1.09v89.49c0,0.6,0.49,1.09,1.09,1.09s1.09-0.49,1.09-1.09v-89.49
			C997.97,539.48,997.48,538.99,996.88,538.99z"/>
		<path class="st3" d="M998.83,574.59h-4.16c-3.96,0-7.17,3.21-7.17,7.17v31.65c0,3.96,3.21,7.17,7.17,7.17h4.16
			c3.96,0,7.17-3.21,7.17-7.17v-31.65C1006,577.79,1002.79,574.59,998.83,574.59z"/>
		<path class="st3" d="M593.69,477.89c-0.6,0-1.09,0.49-1.09,1.09v134.98c0,0.6,0.49,1.09,1.09,1.09c0.6,0,1.09-0.49,1.09-1.09
			V478.99C594.79,478.38,594.3,477.89,593.69,477.89z"/>
		<path class="st3" d="M595.77,502.9h-4.16c-3.96,0-7.17,3.21-7.17,7.17v77.73c0,3.96,3.21,7.17,7.17,7.17h4.16
			c3.96,0,7.17-3.21,7.17-7.17v-77.73C602.94,506.11,599.73,502.9,595.77,502.9z"/>
	</g>
	<g>
		<linearGradient id="SVGID_9_" gradientUnits="userSpaceOnUse" x1="655.8972" y1="-31.7915" x2="-406.0122" y2="1035.7075">
			<stop  offset="0" style="stop-color:#53D8FF"/>
			<stop  offset="1" style="stop-color:#3840F7"/>
		</linearGradient>
		<path class="st13" d="M90.29,669.66c-0.77,0-1.4-0.63-1.4-1.4V405.32c0-0.77,0.63-1.4,1.4-1.4c0.77,0,1.4,0.63,1.4,1.4v262.94
			C91.69,669.03,91.07,669.66,90.29,669.66z"/>
		<linearGradient id="SVGID_10_" gradientUnits="userSpaceOnUse" x1="651.8469" y1="-32.5066" x2="-406.9434" y2="1031.8569">
			<stop  offset="0" style="stop-color:#53D8FF"/>
			<stop  offset="1" style="stop-color:#3840F7"/>
		</linearGradient>
		<path class="st14" d="M94.93,621.67h-9.28c-3.96,0-7.17-3.21-7.17-7.17v-165c0-3.96,3.21-7.17,7.17-7.17h9.28
			c3.96,0,7.17,3.21,7.17,7.17v165C102.1,618.46,98.89,621.67,94.93,621.67z"/>
		<linearGradient id="SVGID_11_" gradientUnits="userSpaceOnUse" x1="604.0777" y1="-83.34" x2="-457.8332" y2="984.1606">
			<stop  offset="0" style="stop-color:#53D8FF"/>
			<stop  offset="1" style="stop-color:#3840F7"/>
		</linearGradient>
		<path class="st15" d="M133.05,482.82c-0.77,0-1.4-0.63-1.4-1.4V298.9c0-0.77,0.63-1.4,1.4-1.4s1.4,0.63,1.4,1.4v182.53
			C134.45,482.2,133.83,482.82,133.05,482.82z"/>
		<linearGradient id="SVGID_12_" gradientUnits="userSpaceOnUse" x1="600.4956" y1="-83.0617" x2="-457.0685" y2="980.0691">
			<stop  offset="0" style="stop-color:#53D8FF"/>
			<stop  offset="1" style="stop-color:#3840F7"/>
		</linearGradient>
		<path class="st16" d="M137.69,449.09h-9.28c-3.96,0-7.17-3.21-7.17-7.17V331.76c0-3.96,3.21-7.17,7.17-7.17h9.28
			c3.96,0,7.17,3.21,7.17,7.17v110.16C144.86,445.88,141.65,449.09,137.69,449.09z"/>
		<linearGradient id="SVGID_13_" gradientUnits="userSpaceOnUse" x1="584.1457" y1="-103.1666" x2="-477.761" y2="964.3297">
			<stop  offset="0" style="stop-color:#53D8FF"/>
			<stop  offset="1" style="stop-color:#3840F7"/>
		</linearGradient>
		<path class="st17" d="M175.81,401.38c-0.77,0-1.4-0.63-1.4-1.4V214.65c0-0.77,0.63-1.4,1.4-1.4c0.77,0,1.4,0.63,1.4,1.4v185.33
			C177.21,400.75,176.59,401.38,175.81,401.38z"/>
		<linearGradient id="SVGID_14_" gradientUnits="userSpaceOnUse" x1="561.5854" y1="-119.3345" x2="-491.7596" y2="939.5551">
			<stop  offset="0" style="stop-color:#53D8FF"/>
			<stop  offset="1" style="stop-color:#3840F7"/>
		</linearGradient>
		<path class="st18" d="M180.45,296.19h-9.28c-3.96,0-7.17-3.21-7.17-7.17v-41.12c0-3.96,3.21-7.17,7.17-7.17h9.28
			c3.96,0,7.17,3.21,7.17,7.17v41.12C187.62,292.99,184.41,296.19,180.45,296.19z"/>
		<linearGradient id="SVGID_15_" gradientUnits="userSpaceOnUse" x1="631.5857" y1="-55.9758" x2="-430.3249" y2="1011.5244">
			<stop  offset="0" style="stop-color:#53D8FF"/>
			<stop  offset="1" style="stop-color:#3840F7"/>
		</linearGradient>
		<path class="st19" d="M218.57,429.21c-0.77,0-1.4-0.63-1.4-1.4V290.6c0-0.77,0.63-1.4,1.4-1.4c0.77,0,1.4,0.63,1.4,1.4v137.22
			C219.97,428.59,219.35,429.21,218.57,429.21z"/>
		<linearGradient id="SVGID_16_" gradientUnits="userSpaceOnUse" x1="628.1752" y1="-55.0451" x2="-428.159" y2="1006.8494">
			<stop  offset="0" style="stop-color:#53D8FF"/>
			<stop  offset="1" style="stop-color:#3840F7"/>
		</linearGradient>
		<path class="st20" d="M223.21,403.5h-9.28c-3.96,0-7.17-3.21-7.17-7.17v-79.25c0-3.96,3.21-7.17,7.17-7.17h9.28
			c3.96,0,7.17,3.21,7.17,7.17v79.25C230.38,400.3,227.17,403.5,223.21,403.5z"/>
		<linearGradient id="SVGID_17_" gradientUnits="userSpaceOnUse" x1="697.1136" y1="9.2092" x2="-364.7981" y2="1076.7104">
			<stop  offset="0" style="stop-color:#53D8FF"/>
			<stop  offset="1" style="stop-color:#3840F7"/>
		</linearGradient>
		<path class="st21" d="M261.33,520.48c-0.77,0-1.4-0.63-1.4-1.4v-143.6c0-0.77,0.63-1.4,1.4-1.4c0.77,0,1.4,0.63,1.4,1.4v143.6
			C262.73,519.85,262.11,520.48,261.33,520.48z"/>
		<linearGradient id="SVGID_18_" gradientUnits="userSpaceOnUse" x1="693.6133" y1="10.1142" x2="-362.9364" y2="1072.2253">
			<stop  offset="0" style="stop-color:#53D8FF"/>
			<stop  offset="1" style="stop-color:#3840F7"/>
		</linearGradient>
		<path class="st22" d="M265.97,493.64h-9.28c-3.96,0-7.17-3.21-7.17-7.17v-83.61c0-3.96,3.21-7.17,7.17-7.17h9.28
			c3.96,0,7.17,3.21,7.17,7.17v83.61C273.14,490.43,269.93,493.64,265.97,493.64z"/>
		<linearGradient id="SVGID_19_" gradientUnits="userSpaceOnUse" x1="849.4768" y1="160.7738" x2="-212.4296" y2="1228.2699">
			<stop  offset="0" style="stop-color:#53D8FF"/>
			<stop  offset="1" style="stop-color:#3840F7"/>
		</linearGradient>
		<path class="st23" d="M603.38,492.12c-0.77,0-1.4-0.63-1.4-1.4V325.61c0-0.77,0.63-1.4,1.4-1.4c0.77,0,1.4,0.63,1.4,1.4v165.11
			C604.78,491.49,604.15,492.12,603.38,492.12z"/>
		<linearGradient id="SVGID_20_" gradientUnits="userSpaceOnUse" x1="846.8801" y1="160.3784" x2="-210.282" y2="1223.1052">
			<stop  offset="0" style="stop-color:#53D8FF"/>
			<stop  offset="1" style="stop-color:#3840F7"/>
		</linearGradient>
		<path class="st24" d="M608.02,461.47h-9.28c-3.96,0-7.17-3.21-7.17-7.17v-98.28c0-3.96,3.21-7.17,7.17-7.17h9.28
			c3.96,0,7.17,3.21,7.17,7.17v98.28C615.19,458.26,611.98,461.47,608.02,461.47z"/>
		<linearGradient id="SVGID_21_" gradientUnits="userSpaceOnUse" x1="917.4472" y1="228.3886" x2="-144.4659" y2="1295.8914">
			<stop  offset="0" style="stop-color:#53D8FF"/>
			<stop  offset="1" style="stop-color:#3840F7"/>
		</linearGradient>
		<path class="st25" d="M646.14,593.79c-0.77,0-1.4-0.63-1.4-1.4V409.86c0-0.77,0.63-1.4,1.4-1.4c0.77,0,1.4,0.63,1.4,1.4v182.53
			C647.54,593.16,646.91,593.79,646.14,593.79z"/>
		<linearGradient id="SVGID_22_" gradientUnits="userSpaceOnUse" x1="914.6823" y1="227.8454" x2="-142.8818" y2="1290.9763">
			<stop  offset="0" style="stop-color:#53D8FF"/>
			<stop  offset="1" style="stop-color:#3840F7"/>
		</linearGradient>
		<path class="st26" d="M650.78,560.05h-9.28c-3.96,0-7.17-3.21-7.17-7.17V442.72c0-3.96,3.21-7.17,7.17-7.17h9.28
			c3.96,0,7.17,3.21,7.17,7.17v110.16C657.95,556.84,654.74,560.05,650.78,560.05z"/>
		<linearGradient id="SVGID_23_" gradientUnits="userSpaceOnUse" x1="984.71" y1="295.2994" x2="-77.2008" y2="1362.7999">
			<stop  offset="0" style="stop-color:#53D8FF"/>
			<stop  offset="1" style="stop-color:#3840F7"/>
		</linearGradient>
		<path class="st27" d="M688.9,633.95c-0.77,0-1.4-0.63-1.4-1.4v-79.78c0-0.77,0.63-1.4,1.4-1.4c0.77,0,1.4,0.63,1.4,1.4v79.78
			C690.3,633.33,689.67,633.95,688.9,633.95z"/>
		<linearGradient id="SVGID_24_" gradientUnits="userSpaceOnUse" x1="972.1797" y1="291.1736" x2="-74.3306" y2="1343.1926">
			<stop  offset="0" style="stop-color:#53D8FF"/>
			<stop  offset="1" style="stop-color:#3840F7"/>
		</linearGradient>
		<path class="st28" d="M693.54,587.88h-9.28c-3.96,0-7.17-3.21-7.17-7.17v-9.54c0-3.96,3.21-7.17,7.17-7.17h9.28
			c3.96,0,7.17,3.21,7.17,7.17v9.54C700.71,584.67,697.5,587.88,693.54,587.88z"/>
		<linearGradient id="SVGID_25_" gradientUnits="userSpaceOnUse" x1="1029.7284" y1="340.0825" x2="-32.1822" y2="1407.5828">
			<stop  offset="0" style="stop-color:#53D8FF"/>
			<stop  offset="1" style="stop-color:#3840F7"/>
		</linearGradient>
		<path class="st29" d="M731.66,709.72c-0.77,0-1.4-0.63-1.4-1.4V571.11c0-0.77,0.63-1.4,1.4-1.4c0.77,0,1.4,0.63,1.4,1.4v137.22
			C733.06,709.1,732.43,709.72,731.66,709.72z"/>
		<linearGradient id="SVGID_26_" gradientUnits="userSpaceOnUse" x1="1026.9214" y1="340.4066" x2="-29.4124" y2="1402.3007">
			<stop  offset="0" style="stop-color:#53D8FF"/>
			<stop  offset="1" style="stop-color:#3840F7"/>
		</linearGradient>
		<path class="st30" d="M736.3,684.01h-9.28c-3.96,0-7.17-3.21-7.17-7.17V597.6c0-3.96,3.21-7.17,7.17-7.17h9.28
			c3.96,0,7.17,3.21,7.17,7.17v79.25C743.47,680.81,740.26,684.01,736.3,684.01z"/>
		<linearGradient id="SVGID_27_" gradientUnits="userSpaceOnUse" x1="1003.8255" y1="314.3157" x2="-58.0819" y2="1381.8127">
			<stop  offset="0" style="stop-color:#53D8FF"/>
			<stop  offset="1" style="stop-color:#3840F7"/>
		</linearGradient>
		<path class="st31" d="M774.42,618.12c-0.77,0-1.4-0.63-1.4-1.4v-143.6c0-0.77,0.63-1.4,1.4-1.4s1.4,0.63,1.4,1.4v143.6
			C775.82,617.5,775.19,618.12,774.42,618.12z"/>
		<linearGradient id="SVGID_28_" gradientUnits="userSpaceOnUse" x1="1001.367" y1="314.1728" x2="-55.1822" y2="1376.2834">
			<stop  offset="0" style="stop-color:#53D8FF"/>
			<stop  offset="1" style="stop-color:#3840F7"/>
		</linearGradient>
		<path class="st32" d="M779.06,591.28h-9.28c-3.96,0-7.17-3.21-7.17-7.17v-83.61c0-3.96,3.21-7.17,7.17-7.17h9.28
			c3.96,0,7.17,3.21,7.17,7.17v83.61C786.23,588.08,783.02,591.28,779.06,591.28z"/>
		<linearGradient id="SVGID_29_" gradientUnits="userSpaceOnUse" x1="741.7418" y1="53.6017" x2="-320.1671" y2="1121.1002">
			<stop  offset="0" style="stop-color:#53D8FF"/>
			<stop  offset="1" style="stop-color:#3840F7"/>
		</linearGradient>
		<path class="st33" d="M304.09,521.75c-0.77,0-1.4-0.63-1.4-1.4v-53.61c0-0.77,0.63-1.4,1.4-1.4c0.77,0,1.4,0.63,1.4,1.4v53.61
			C305.49,521.13,304.87,521.75,304.09,521.75z"/>
		<linearGradient id="SVGID_30_" gradientUnits="userSpaceOnUse" x1="738.3553" y1="65.0207" x2="-305.7804" y2="1114.6526">
			<stop  offset="0" style="stop-color:#53D8FF"/>
			<stop  offset="1" style="stop-color:#3840F7"/>
		</linearGradient>
		<path class="st34" d="M308.73,510.86h-9.28c-3.96,0-7.17-3.21-7.17-7.17v-4.25c0-3.96,3.21-7.17,7.17-7.17h9.28
			c3.96,0,7.17,3.21,7.17,7.17v4.25C315.9,507.65,312.69,510.86,308.73,510.86z"/>
		<linearGradient id="SVGID_31_" gradientUnits="userSpaceOnUse" x1="784.9321" y1="96.5675" x2="-276.9766" y2="1164.0658">
			<stop  offset="0" style="stop-color:#53D8FF"/>
			<stop  offset="1" style="stop-color:#3840F7"/>
		</linearGradient>
		<path class="st35" d="M346.85,585.58c-0.77,0-1.4-0.63-1.4-1.4v-94.45c0-0.77,0.63-1.4,1.4-1.4c0.77,0,1.4,0.63,1.4,1.4v94.45
			C348.25,584.95,347.63,585.58,346.85,585.58z"/>
		<linearGradient id="SVGID_32_" gradientUnits="userSpaceOnUse" x1="782.0444" y1="100.6754" x2="-271.4187" y2="1159.6837">
			<stop  offset="0" style="stop-color:#53D8FF"/>
			<stop  offset="1" style="stop-color:#3840F7"/>
		</linearGradient>
		<path class="st36" d="M350.42,567.44h-7.14c-3.96,0-7.17-3.21-7.17-7.17v-44.24c0-3.96,3.21-7.17,7.17-7.17h7.14
			c3.96,0,7.17,3.21,7.17,7.17v44.24C357.59,564.23,354.38,567.44,350.42,567.44z"/>
		<linearGradient id="SVGID_33_" gradientUnits="userSpaceOnUse" x1="756.6443" y1="68.4286" x2="-305.2659" y2="1135.9285">
			<stop  offset="0" style="stop-color:#53D8FF"/>
			<stop  offset="1" style="stop-color:#3840F7"/>
		</linearGradient>
		<path class="st37" d="M389.61,554.3c-0.77,0-1.4-0.63-1.4-1.4V321.87c0-0.77,0.63-1.4,1.4-1.4c0.77,0,1.4,0.63,1.4,1.4v231.03
			C391.01,553.68,390.39,554.3,389.61,554.3z"/>
		<linearGradient id="SVGID_34_" gradientUnits="userSpaceOnUse" x1="761.1642" y1="75.9659" x2="-296.4172" y2="1139.1141">
			<stop  offset="0" style="stop-color:#53D8FF"/>
			<stop  offset="1" style="stop-color:#3840F7"/>
		</linearGradient>
		<path class="st38" d="M394.26,511.97h-9.28c-3.96,0-7.17-3.21-7.17-7.17V394.14c0-3.96,3.21-7.17,7.17-7.17h9.28
			c3.96,0,7.17,3.21,7.17,7.17V504.8C401.42,508.76,398.21,511.97,394.26,511.97z"/>
		<linearGradient id="SVGID_35_" gradientUnits="userSpaceOnUse" x1="740.0043" y1="51.8751" x2="-321.9052" y2="1119.3741">
			<stop  offset="0" style="stop-color:#53D8FF"/>
			<stop  offset="1" style="stop-color:#3840F7"/>
		</linearGradient>
		<path class="st39" d="M432.37,433.04c-0.77,0-1.4-0.63-1.4-1.4V290.6c0-0.77,0.63-1.4,1.4-1.4c0.77,0,1.4,0.63,1.4,1.4v141.04
			C433.77,432.42,433.15,433.04,432.37,433.04z"/>
		<linearGradient id="SVGID_36_" gradientUnits="userSpaceOnUse" x1="732.3947" y1="47.9868" x2="-323.0424" y2="1108.9794">
			<stop  offset="0" style="stop-color:#53D8FF"/>
			<stop  offset="1" style="stop-color:#3840F7"/>
		</linearGradient>
		<path class="st40" d="M437.02,388.79h-9.28c-3.96,0-7.17-3.21-7.17-7.17v-64.07c0-3.96,3.21-7.17,7.17-7.17h9.28
			c3.96,0,7.17,3.21,7.17,7.17v64.07C444.18,385.58,440.97,388.79,437.02,388.79z"/>
		<linearGradient id="SVGID_37_" gradientUnits="userSpaceOnUse" x1="761.3373" y1="73.0956" x2="-300.572" y2="1140.5946">
			<stop  offset="0" style="stop-color:#53D8FF"/>
			<stop  offset="1" style="stop-color:#3840F7"/>
		</linearGradient>
		<path class="st41" d="M475.13,493.67c-0.77,0-1.4-0.63-1.4-1.4V229.33c0-0.77,0.63-1.4,1.4-1.4c0.77,0,1.4,0.63,1.4,1.4v262.94
			C476.53,493.05,475.91,493.67,475.13,493.67z"/>
		<linearGradient id="SVGID_38_" gradientUnits="userSpaceOnUse" x1="758.1093" y1="71.5544" x2="-300.681" y2="1135.9178">
			<stop  offset="0" style="stop-color:#53D8FF"/>
			<stop  offset="1" style="stop-color:#3840F7"/>
		</linearGradient>
		<path class="st42" d="M479.78,445.69h-9.28c-3.96,0-7.17-3.21-7.17-7.17v-165c0-3.96,3.21-7.17,7.17-7.17h9.28
			c3.96,0,7.17,3.21,7.17,7.17v165C486.94,442.48,483.73,445.69,479.78,445.69z"/>
		<linearGradient id="SVGID_39_" gradientUnits="userSpaceOnUse" x1="727.4654" y1="39.4019" x2="-334.447" y2="1106.9039">
			<stop  offset="0" style="stop-color:#53D8FF"/>
			<stop  offset="1" style="stop-color:#3840F7"/>
		</linearGradient>
		<path class="st43" d="M517.9,308.59c-0.77,0-1.4-0.63-1.4-1.4V192.96c0-0.77,0.63-1.4,1.4-1.4s1.4,0.63,1.4,1.4V307.2
			C519.29,307.97,518.67,308.59,517.9,308.59z"/>
		<linearGradient id="SVGID_40_" gradientUnits="userSpaceOnUse" x1="717.6918" y1="32.7877" x2="-336.0301" y2="1092.0562">
			<stop  offset="0" style="stop-color:#53D8FF"/>
			<stop  offset="1" style="stop-color:#3840F7"/>
		</linearGradient>
		<path class="st44" d="M522.38,263.15h-9.28c-3.96,0-7.17-3.21-7.17-7.17v-44.37c0-3.96,3.21-7.17,7.17-7.17h9.28
			c3.96,0,7.17,3.21,7.17,7.17v44.37C529.54,259.94,526.33,263.15,522.38,263.15z"/>
		<linearGradient id="SVGID_41_" gradientUnits="userSpaceOnUse" x1="977.312" y1="287.9407" x2="-84.5997" y2="1355.442">
			<stop  offset="0" style="stop-color:#53D8FF"/>
			<stop  offset="1" style="stop-color:#3840F7"/>
		</linearGradient>
		<path class="st45" d="M818.8,520.48c-0.77,0-1.4-0.63-1.4-1.4v-143.6c0-0.77,0.63-1.4,1.4-1.4c0.77,0,1.4,0.63,1.4,1.4v143.6
			C820.2,519.85,819.58,520.48,818.8,520.48z"/>
		<linearGradient id="SVGID_42_" gradientUnits="userSpaceOnUse" x1="975.2115" y1="287.4382" x2="-81.3376" y2="1349.5488">
			<stop  offset="0" style="stop-color:#53D8FF"/>
			<stop  offset="1" style="stop-color:#3840F7"/>
		</linearGradient>
		<path class="st46" d="M823.45,493.64h-9.28c-3.96,0-7.17-3.21-7.17-7.17v-83.61c0-3.96,3.21-7.17,7.17-7.17h9.28
			c3.96,0,7.17,3.21,7.17,7.17v83.61C830.61,490.43,827.4,493.64,823.45,493.64z"/>
		<linearGradient id="SVGID_43_" gradientUnits="userSpaceOnUse" x1="1021.9388" y1="332.334" x2="-39.9703" y2="1399.8328">
			<stop  offset="0" style="stop-color:#53D8FF"/>
			<stop  offset="1" style="stop-color:#3840F7"/>
		</linearGradient>
		<path class="st47" d="M861.56,521.75c-0.77,0-1.4-0.63-1.4-1.4v-53.61c0-0.77,0.63-1.4,1.4-1.4c0.77,0,1.4,0.63,1.4,1.4v53.61
			C862.96,521.13,862.34,521.75,861.56,521.75z"/>
		<linearGradient id="SVGID_44_" gradientUnits="userSpaceOnUse" x1="1023.1947" y1="339.0865" x2="-20.9406" y2="1388.7179">
			<stop  offset="0" style="stop-color:#53D8FF"/>
			<stop  offset="1" style="stop-color:#3840F7"/>
		</linearGradient>
		<path class="st48" d="M866.21,510.86h-9.28c-3.96,0-7.17-3.21-7.17-7.17v-4.25c0-3.96,3.21-7.17,7.17-7.17h9.28
			c3.96,0,7.17,3.21,7.17,7.17v4.25C873.37,507.65,870.16,510.86,866.21,510.86z"/>
		<linearGradient id="SVGID_45_" gradientUnits="userSpaceOnUse" x1="1065.1304" y1="375.2991" x2="3.2216" y2="1442.7974">
			<stop  offset="0" style="stop-color:#53D8FF"/>
			<stop  offset="1" style="stop-color:#3840F7"/>
		</linearGradient>
		<path class="st49" d="M904.33,585.58c-0.77,0-1.4-0.63-1.4-1.4v-94.45c0-0.77,0.63-1.4,1.4-1.4c0.77,0,1.4,0.63,1.4,1.4v94.45
			C905.72,584.95,905.1,585.58,904.33,585.58z"/>
		<linearGradient id="SVGID_46_" gradientUnits="userSpaceOnUse" x1="1064.449" y1="377.1888" x2="10.9854" y2="1436.1975">
			<stop  offset="0" style="stop-color:#53D8FF"/>
			<stop  offset="1" style="stop-color:#3840F7"/>
		</linearGradient>
		<path class="st50" d="M907.89,567.44h-7.14c-3.96,0-7.17-3.21-7.17-7.17v-44.24c0-3.96,3.21-7.17,7.17-7.17h7.14
			c3.96,0,7.17,3.21,7.17,7.17v44.24C915.06,564.23,911.85,567.44,907.89,567.44z"/>
		<linearGradient id="SVGID_47_" gradientUnits="userSpaceOnUse" x1="1036.8427" y1="347.1598" x2="-25.0676" y2="1414.6597">
			<stop  offset="0" style="stop-color:#53D8FF"/>
			<stop  offset="1" style="stop-color:#3840F7"/>
		</linearGradient>
		<path class="st51" d="M947.08,554.3c-0.77,0-1.4-0.63-1.4-1.4V321.87c0-0.77,0.63-1.4,1.4-1.4s1.4,0.63,1.4,1.4v231.03
			C948.48,553.68,947.86,554.3,947.08,554.3z"/>
		<linearGradient id="SVGID_48_" gradientUnits="userSpaceOnUse" x1="1042.4926" y1="353.5612" x2="-15.0888" y2="1416.7094">
			<stop  offset="0" style="stop-color:#53D8FF"/>
			<stop  offset="1" style="stop-color:#3840F7"/>
		</linearGradient>
		<path class="st52" d="M951.73,511.97h-9.28c-3.96,0-7.17-3.21-7.17-7.17V394.14c0-3.96,3.21-7.17,7.17-7.17h9.28
			c3.96,0,7.17,3.21,7.17,7.17V504.8C958.89,508.76,955.68,511.97,951.73,511.97z"/>
		<linearGradient id="SVGID_49_" gradientUnits="userSpaceOnUse" x1="1020.2022" y1="330.6065" x2="-41.7073" y2="1398.1057">
			<stop  offset="0" style="stop-color:#53D8FF"/>
			<stop  offset="1" style="stop-color:#3840F7"/>
		</linearGradient>
		<path class="st53" d="M989.84,433.04c-0.77,0-1.4-0.63-1.4-1.4V290.6c0-0.77,0.63-1.4,1.4-1.4c0.77,0,1.4,0.63,1.4,1.4v141.04
			C991.24,432.42,990.62,433.04,989.84,433.04z"/>
		<linearGradient id="SVGID_50_" gradientUnits="userSpaceOnUse" x1="1014.2835" y1="325.0186" x2="-41.1538" y2="1386.0115">
			<stop  offset="0" style="stop-color:#53D8FF"/>
			<stop  offset="1" style="stop-color:#3840F7"/>
		</linearGradient>
		<path class="st54" d="M994.49,388.79h-9.28c-3.96,0-7.17-3.21-7.17-7.17v-64.07c0-3.96,3.21-7.17,7.17-7.17h9.28
			c3.96,0,7.17,3.21,7.17,7.17v64.07C1001.65,385.58,998.44,388.79,994.49,388.79z"/>
		<linearGradient id="SVGID_51_" gradientUnits="userSpaceOnUse" x1="1041.5352" y1="351.8276" x2="-20.3742" y2="1419.3267">
			<stop  offset="0" style="stop-color:#53D8FF"/>
			<stop  offset="1" style="stop-color:#3840F7"/>
		</linearGradient>
		<path class="st55" d="M1032.61,493.67c-0.77,0-1.4-0.63-1.4-1.4V229.33c0-0.77,0.63-1.4,1.4-1.4s1.4,0.63,1.4,1.4v262.94
			C1034,493.05,1033.38,493.67,1032.61,493.67z"/>
		<linearGradient id="SVGID_52_" gradientUnits="userSpaceOnUse" x1="1039.1227" y1="349.4663" x2="-19.6676" y2="1413.8298">
			<stop  offset="0" style="stop-color:#53D8FF"/>
			<stop  offset="1" style="stop-color:#3840F7"/>
		</linearGradient>
		<path class="st56" d="M1037.25,445.69h-9.28c-3.96,0-7.17-3.21-7.17-7.17v-165c0-3.96,3.21-7.17,7.17-7.17h9.28
			c3.96,0,7.17,3.21,7.17,7.17v165C1044.41,442.48,1041.2,445.69,1037.25,445.69z"/>
		<linearGradient id="SVGID_53_" gradientUnits="userSpaceOnUse" x1="1007.6631" y1="318.1336" x2="-54.2496" y2="1385.636">
			<stop  offset="0" style="stop-color:#53D8FF"/>
			<stop  offset="1" style="stop-color:#3840F7"/>
		</linearGradient>
		<path class="st57" d="M1075.36,308.59c-0.77,0-1.4-0.63-1.4-1.4V192.96c0-0.77,0.63-1.4,1.4-1.4c0.77,0,1.4,0.63,1.4,1.4V307.2
			C1076.76,307.97,1076.14,308.59,1075.36,308.59z"/>
		<linearGradient id="SVGID_54_" gradientUnits="userSpaceOnUse" x1="1000.028" y1="309.3699" x2="-53.6939" y2="1368.6384">
			<stop  offset="0" style="stop-color:#53D8FF"/>
			<stop  offset="1" style="stop-color:#3840F7"/>
		</linearGradient>
		<path class="st58" d="M1079.85,263.15h-9.28c-3.96,0-7.17-3.21-7.17-7.17v-44.37c0-3.96,3.21-7.17,7.17-7.17h9.28
			c3.96,0,7.17,3.21,7.17,7.17v44.37C1087.01,259.94,1083.8,263.15,1079.85,263.15z"/>
		<linearGradient id="SVGID_55_" gradientUnits="userSpaceOnUse" x1="773.4355" y1="85.1312" x2="-288.4719" y2="1152.6283">
			<stop  offset="0" style="stop-color:#53D8FF"/>
			<stop  offset="1" style="stop-color:#3840F7"/>
		</linearGradient>
		<path class="st59" d="M560.65,386.59c-0.77,0-1.4-0.63-1.4-1.4V212.87c0-0.77,0.63-1.4,1.4-1.4c0.77,0,1.4,0.63,1.4,1.4v172.32
			C562.05,385.96,561.43,386.59,560.65,386.59z"/>
		<linearGradient id="SVGID_56_" gradientUnits="userSpaceOnUse" x1="770.9572" y1="84.4859" x2="-286.3804" y2="1147.3892">
			<stop  offset="0" style="stop-color:#53D8FF"/>
			<stop  offset="1" style="stop-color:#3840F7"/>
		</linearGradient>
		<path class="st60" d="M565.3,354.66h-9.28c-3.96,0-7.17-3.21-7.17-7.17V244.3c0-3.96,3.21-7.17,7.17-7.17h9.28
			c3.96,0,7.17,3.21,7.17,7.17v103.19C572.46,351.45,569.25,354.66,565.3,354.66z"/>
	</g>
	<g>
		<linearGradient id="SVGID_57_" gradientUnits="userSpaceOnUse" x1="876.5345" y1="28.8763" x2="745.7723" y2="540.0389">
			<stop  offset="0" style="stop-color:#CB236D"/>
			<stop  offset="1" style="stop-color:#4C246D"/>
		</linearGradient>
		<path class="st61" d="M934.52,189.93L841.27,61.59c-2.51-3.45-10.3-3.45-12.81,0l-93.25,128.34c-2.13,2.93,1.28,6.26,6.4,6.26
			h30.23c3.89,0,7.04,1.98,7.04,4.42v137.97c0,2.44,3.15,4.42,7.04,4.42h97.88c3.89,0,7.04-1.98,7.04-4.42V200.61
			c0-2.44,3.15-4.42,7.04-4.42h30.24C933.24,196.19,936.65,192.85,934.52,189.93z"/>
		<g class="st62">
			<path class="st3" d="M788.62,301.99c0-1.33,0.99-2.44,2.31-2.58c2.21-0.24,5.13-0.39,7.92-0.39c4.83,0,7.79,0.47,10.34,1.97
				c2.44,1.3,4.21,3.69,4.21,6.86c0,3.12-1.82,6.03-5.77,7.48v0.1c4,1.09,6.96,4.1,6.96,8.62c0,3.17-1.45,5.66-3.64,7.43
				c-2.55,2.03-6.8,3.17-13.77,3.17c-2.49,0-4.58-0.11-6.22-0.25c-1.33-0.12-2.35-1.25-2.35-2.59V301.99z M796.47,310.55
				c0,1.43,1.16,2.6,2.6,2.6l0,0c4.16,0,6.39-1.71,6.39-4.31c0-2.65-2.03-4.05-5.61-4.05c-0.31,0-0.59,0-0.86,0.01
				c-1.41,0.03-2.52,1.19-2.52,2.6V310.55z M796.47,326.18c0,1.43,1.15,2.6,2.58,2.6c0.15,0,0.31,0,0.48,0
				c3.58,0,6.75-1.35,6.75-5.04c0-3.53-3.17-4.93-7.12-4.93h-0.1c-1.43,0-2.6,1.16-2.6,2.6V326.18z"/>
			<path class="st3" d="M825.3,299.28c1.43,0,2.6,1.16,2.6,2.6v17.56c0,6.03,2.29,9.09,6.34,9.09c4.16,0,6.44-2.91,6.44-9.09v-17.56
				c0-1.43,1.16-2.6,2.6-2.6h2.7c1.43,0,2.6,1.16,2.6,2.6v17.04c0,10.8-5.45,15.95-14.6,15.95c-8.83,0-14.03-4.88-14.03-16.05
				v-16.93c0-1.43,1.16-2.6,2.6-2.6H825.3z"/>
			<path class="st3" d="M863.53,331.69V320.6c0-0.43-0.11-0.85-0.31-1.23l-8.71-16.28c-0.93-1.73,0.33-3.82,2.29-3.82h2.99
				c1.04,0,1.98,0.62,2.39,1.58l2.91,6.84c1.09,2.55,1.82,4.42,2.7,6.7h0.1c0.78-2.18,1.61-4.21,2.65-6.7l2.86-6.82
				c0.4-0.96,1.35-1.59,2.4-1.59h2.71c1.99,0,3.24,2.14,2.26,3.88l-9.01,15.94c-0.22,0.39-0.34,0.83-0.34,1.28v11.32
				c0,1.43-1.16,2.6-2.6,2.6h-2.7C864.69,334.29,863.53,333.12,863.53,331.69z"/>
		</g>
	</g>
	<g>
		
			<linearGradient id="SVGID_58_" gradientUnits="userSpaceOnUse" x1="7047.4775" y1="610.2968" x2="7103.6104" y2="610.2968" gradientTransform="matrix(-1 0 0 1 7991.397 0)">
			<stop  offset="0" style="stop-color:#9CFFFB"/>
			<stop  offset="1" style="stop-color:#9BFFFA"/>
		</linearGradient>
		<path class="st63" d="M890.99,744.79c1.53,0,2.89-0.99,3.15-2.38l49.74-263.28c0.29-1.56-0.88-3.03-2.62-3.29
			c-1.74-0.26-3.39,0.79-3.69,2.34l-49.74,263.28c-0.29,1.56,0.88,3.03,2.62,3.29C890.63,744.78,890.81,744.79,890.99,744.79z"/>
		
			<linearGradient id="SVGID_59_" gradientUnits="userSpaceOnUse" x1="6929.4141" y1="612.0085" x2="6994.4414" y2="612.0085" gradientTransform="matrix(-1 0 0 1 7991.397 0)">
			<stop  offset="0" style="stop-color:#9CFFFB"/>
			<stop  offset="1" style="stop-color:#9BFFFA"/>
		</linearGradient>
		<path class="st64" d="M1058.78,744.8c0.21,0,0.42-0.02,0.64-0.06c1.73-0.31,2.85-1.82,2.5-3.36l-58.63-259.86
			c-0.35-1.55-2.03-2.56-3.77-2.24c-1.73,0.31-2.85,1.82-2.5,3.36l58.63,259.86C1055.96,743.86,1057.29,744.8,1058.78,744.8z"/>
		
			<linearGradient id="SVGID_60_" gradientUnits="userSpaceOnUse" x1="6974.2666" y1="541.3389" x2="7065.6553" y2="541.3389" gradientTransform="matrix(-1 0 0 1 7991.397 0)">
			<stop  offset="0" style="stop-color:#9CFFFB"/>
			<stop  offset="1" style="stop-color:#9BFFFA"/>
		</linearGradient>
		<path class="st65" d="M928.94,544.2h84.99c1.77,0,3.2-1.28,3.2-2.86s-1.43-2.86-3.2-2.86h-84.99c-1.77,0-3.2,1.28-3.2,2.86
			S927.17,544.2,928.94,544.2z"/>
		
			<linearGradient id="SVGID_61_" gradientUnits="userSpaceOnUse" x1="6975.9258" y1="541.3389" x2="7063.9985" y2="541.3389" gradientTransform="matrix(-1 0 0 1 7991.397 0)">
			<stop  offset="0" style="stop-color:#9CFFFB"/>
			<stop  offset="1" style="stop-color:#9BFFFA"/>
		</linearGradient>
		<path class="st66" d="M930.48,544.2h81.91c1.7,0,3.08-1.28,3.08-2.86s-1.38-2.86-3.08-2.86h-81.91c-1.7,0-3.08,1.28-3.08,2.86
			S928.78,544.2,930.48,544.2z"/>
		
			<linearGradient id="SVGID_62_" gradientUnits="userSpaceOnUse" x1="6974.2666" y1="588.944" x2="7065.6553" y2="588.944" gradientTransform="matrix(-1 0 0 1 7991.397 0)">
			<stop  offset="0" style="stop-color:#9CFFFB"/>
			<stop  offset="1" style="stop-color:#9BFFFA"/>
		</linearGradient>
		<path class="st67" d="M928.94,591.8h84.99c1.77,0,3.2-1.28,3.2-2.86c0-1.58-1.43-2.86-3.2-2.86h-84.99c-1.77,0-3.2,1.28-3.2,2.86
			C925.74,590.52,927.17,591.8,928.94,591.8z"/>
		
			<linearGradient id="SVGID_63_" gradientUnits="userSpaceOnUse" x1="6963.9341" y1="588.944" x2="7073.373" y2="588.944" gradientTransform="matrix(-1 0 0 1 7991.397 0)">
			<stop  offset="0" style="stop-color:#9CFFFB"/>
			<stop  offset="1" style="stop-color:#9BFFFA"/>
		</linearGradient>
		<path class="st68" d="M921.22,591.8h103.04c1.77,0,3.2-1.28,3.2-2.86c0-1.58-1.43-2.86-3.2-2.86H921.22c-1.77,0-3.2,1.28-3.2,2.86
			C918.02,590.52,919.46,591.8,921.22,591.8z"/>
		
			<linearGradient id="SVGID_64_" gradientUnits="userSpaceOnUse" x1="6974.2666" y1="636.5492" x2="7065.6553" y2="636.5492" gradientTransform="matrix(-1 0 0 1 7991.397 0)">
			<stop  offset="0" style="stop-color:#9CFFFB"/>
			<stop  offset="1" style="stop-color:#9BFFFA"/>
		</linearGradient>
		<path class="st69" d="M928.94,639.41h84.99c1.77,0,3.2-1.28,3.2-2.86c0-1.58-1.43-2.86-3.2-2.86h-84.99c-1.77,0-3.2,1.28-3.2,2.86
			C925.74,638.13,927.17,639.41,928.94,639.41z"/>
		
			<linearGradient id="SVGID_65_" gradientUnits="userSpaceOnUse" x1="6953.4775" y1="636.5492" x2="7083.2153" y2="636.5492" gradientTransform="matrix(-1 0 0 1 7991.397 0)">
			<stop  offset="0" style="stop-color:#9CFFFB"/>
			<stop  offset="1" style="stop-color:#9BFFFA"/>
		</linearGradient>
		<path class="st70" d="M911.38,639.41h123.34c1.77,0,3.2-1.28,3.2-2.86c0-1.58-1.43-2.86-3.2-2.86H911.38
			c-1.77,0-3.2,1.28-3.2,2.86C908.18,638.13,909.61,639.41,911.38,639.41z"/>
		
			<linearGradient id="SVGID_66_" gradientUnits="userSpaceOnUse" x1="6943.562" y1="684.1545" x2="7065.6553" y2="684.1545" gradientTransform="matrix(-1 0 0 1 7991.397 0)">
			<stop  offset="0" style="stop-color:#9CFFFB"/>
			<stop  offset="1" style="stop-color:#9BFFFA"/>
		</linearGradient>
		<path class="st71" d="M928.94,687.01h115.7c1.77,0,3.2-1.28,3.2-2.86c0-1.58-1.43-2.86-3.2-2.86h-115.7c-1.77,0-3.2,1.28-3.2,2.86
			C925.74,685.73,927.17,687.01,928.94,687.01z"/>
		
			<linearGradient id="SVGID_67_" gradientUnits="userSpaceOnUse" x1="6943.562" y1="684.1545" x2="7091.1768" y2="684.1545" gradientTransform="matrix(-1 0 0 1 7991.397 0)">
			<stop  offset="0" style="stop-color:#9CFFFB"/>
			<stop  offset="1" style="stop-color:#9BFFFA"/>
		</linearGradient>
		<path class="st72" d="M903.42,687.01h141.22c1.77,0,3.2-1.28,3.2-2.86c0-1.58-1.43-2.86-3.2-2.86H903.42
			c-1.77,0-3.2,1.28-3.2,2.86C900.22,685.73,901.65,687.01,903.42,687.01z"/>
	</g>
	<g>
		
			<linearGradient id="SVGID_68_" gradientUnits="userSpaceOnUse" x1="5283.3945" y1="533.771" x2="5302.061" y2="533.771" gradientTransform="matrix(-1 0 0 1 6291.397 0)">
			<stop  offset="0" style="stop-color:#2B3582"/>
			<stop  offset="1" style="stop-color:#150E42"/>
		</linearGradient>
		<path class="st73" d="M1005.4,527.19c0,0,2.07,3.27,2.6,12.42c0.05,0.85-0.63,1.58-1.48,1.58H990.3c-0.65,0-1.12-0.64-0.91-1.26
			c0.95-2.81,3.82-9.67,10.24-13.59L1005.4,527.19z"/>
		
			<linearGradient id="SVGID_69_" gradientUnits="userSpaceOnUse" x1="5285.2881" y1="525.0968" x2="5292.8589" y2="525.0968" gradientTransform="matrix(-1 0 0 1 6291.397 0)">
			<stop  offset="0" style="stop-color:#F9B776"/>
			<stop  offset="1" style="stop-color:#F47960"/>
		</linearGradient>
		<path class="st74" d="M1006.11,520.99l-0.92,7.69c-0.08,0.66-0.6,1.2-1.26,1.27c-0.89,0.1-2.18,0.17-3.43-0.03
			c-1.14-0.19-1.96-1.2-1.96-2.36v-7.43L1006.11,520.99z"/>
		
			<linearGradient id="SVGID_70_" gradientUnits="userSpaceOnUse" x1="5323.0913" y1="533.4725" x2="5352.3799" y2="533.4725" gradientTransform="matrix(-1 0 0 1 6291.397 0)">
			<stop  offset="0" style="stop-color:#2B3582"/>
			<stop  offset="1" style="stop-color:#150E42"/>
		</linearGradient>
		<path class="st75" d="M965.27,526.35c0,0,3.11,4.83,3.04,11.45c-0.02,1.56-1.32,2.8-2.88,2.8h-25.2c-1.18,0-1.66-1.52-0.69-2.19
			c4.77-3.35,14.14-9.6,20.92-12.06H965.27z"/>
		
			<linearGradient id="SVGID_71_" gradientUnits="userSpaceOnUse" x1="5323.5361" y1="521.7352" x2="5331.0649" y2="521.7352" gradientTransform="matrix(-1 0 0 1 6291.397 0)">
			<stop  offset="0" style="stop-color:#F9B776"/>
			<stop  offset="1" style="stop-color:#F47960"/>
		</linearGradient>
		<path class="st76" d="M967.86,518.04l-1.96,9.5c-0.22,1.06-1.26,1.78-2.32,1.54c-0.64-0.14-1.4-0.42-2.22-0.93
			c-0.77-0.48-1.16-1.4-1-2.3l2.02-11.51L967.86,518.04z"/>
		
			<linearGradient id="SVGID_72_" gradientUnits="userSpaceOnUse" x1="5280.5845" y1="454.9528" x2="5331.9106" y2="454.9528" gradientTransform="matrix(-1 0 0 1 6291.397 0)">
			<stop  offset="0" style="stop-color:#2B3582"/>
			<stop  offset="1" style="stop-color:#150E42"/>
		</linearGradient>
		<path class="st77" d="M1002.51,385.93c0,0,6.8,6,8.09,13.22c1.28,7.22-3.63,124.54-3.63,124.54s-6.8,1.13-10.31-0.99
			c0,0-4.16-76.14-7.32-93.73c0,0-16.58,78.87-21.18,93.12c0,0-6.56,0.8-8.67-0.45c0,0,4.34-102.24,9.8-120.41L1002.51,385.93z"/>
		<path class="st78" d="M989.53,426.49c-0.06,0-0.13-0.01-0.19-0.02c-0.4-0.1-0.64-0.51-0.54-0.91l2.89-11.09
			c0.05-0.18,0.16-0.34,0.32-0.44l6.24-4.01c0.35-0.22,0.81-0.12,1.04,0.23c0.22,0.35,0.12,0.81-0.23,1.04l-6,3.85l-2.82,10.8
			C990.17,426.27,989.87,426.49,989.53,426.49z"/>
		<linearGradient id="SVGID_73_" gradientUnits="userSpaceOnUse" x1="909.4109" y1="329.3424" x2="971.4944" y2="329.3424">
			<stop  offset="0" style="stop-color:#C32B78"/>
			<stop  offset="1" style="stop-color:#593092"/>
		</linearGradient>
		<path class="st79" d="M935.36,318.14c28.65-2.38,36.13,3.55,36.13,3.55l-13.77,21.73c0,0-28.15-0.56-48.32-16.1
			c3.77-4.07,6.4-8.56,8.08-12.06C922.69,317.42,928.68,318.69,935.36,318.14z"/>
		
			<linearGradient id="SVGID_74_" gradientUnits="userSpaceOnUse" x1="5373.9087" y1="301.283" x2="5401.8896" y2="301.283" gradientTransform="matrix(-1 0 0 1 6291.397 0)">
			<stop  offset="0" style="stop-color:#F9B776"/>
			<stop  offset="1" style="stop-color:#F47960"/>
		</linearGradient>
		<path class="st80" d="M890.5,276.09c0.04-0.92,1.28-1.17,1.67-0.34l3.66,7.8c0.71,1.51,0.93,3.19,0.65,4.83l-1.28,4.54
			c-0.38,2.21,0.19,4.48,1.6,6.24c3.36,4.2,10.51,11.87,20.7,16.1c-1.68,3.5-4.3,7.99-8.08,12.06c-7.4-5.7-13.73-13.42-17.2-23.88
			c-1.66-0.51-2.77-2.07-2.7-3.81L890.5,276.09z"/>
		<linearGradient id="SVGID_75_" gradientUnits="userSpaceOnUse" x1="925.0281" y1="326.4206" x2="986.5248" y2="407.4163">
			<stop  offset="0" style="stop-color:#C32B78"/>
			<stop  offset="1" style="stop-color:#593092"/>
		</linearGradient>
		<path class="st81" d="M925.93,330.74c10.08-10.87,29.29-15.78,40.42-17.79c4.87-0.88,9.68,1.83,11.4,6.47
			c5,13.45,18.62,48.46,21.26,54.47c2.16,4.94,4.42,9.76,5.86,12.77c0.86,1.8,0.11,3.95-1.69,4.82c-9.36,4.51-26.19,9.61-33.02,11.6
			c-1.5,0.44-3-0.69-3-2.25c0-1.33-0.36-2.63-1.04-3.77l-25.85-43.08c-16.11,17.87-30.22,19.5-41.06,15.59
			c1.82-5.63,3.02-11.28,3.59-16.93C918.8,349.9,925.93,330.74,925.93,330.74z"/>
		
			<linearGradient id="SVGID_76_" gradientUnits="userSpaceOnUse" x1="5437.2661" y1="307.3833" x2="5376.8076" y2="382.5994" gradientTransform="matrix(-1 0 0 1 6291.397 0)">
			<stop  offset="0" style="stop-color:#F9B776"/>
			<stop  offset="1" style="stop-color:#F47960"/>
		</linearGradient>
		<path class="st82" d="M876.32,349.64l2.89-3.85c9.36,6.43,17.18,7.95,23.58,6.85c-0.57,5.65-1.76,11.3-3.59,16.93
			C884.92,364.42,876.32,349.64,876.32,349.64z"/>
		
			<linearGradient id="SVGID_77_" gradientUnits="userSpaceOnUse" x1="5448.729" y1="316.5968" x2="5388.2705" y2="391.813" gradientTransform="matrix(-1 0 0 1 6291.397 0)">
			<stop  offset="0" style="stop-color:#F9B776"/>
			<stop  offset="1" style="stop-color:#F47960"/>
		</linearGradient>
		<path class="st83" d="M878.36,349.71l-16.28,0.63l-14.99-8.37c2.15-1.35,14.32,1.41,14.32,1.41s12.72-1.92,16.16-1.93
			c2.86,0,2.45,4.11,2.23,5.5c-0.04,0.28-0.08,0.46-0.08,0.46L878.36,349.71z"/>
		
			<linearGradient id="SVGID_78_" gradientUnits="userSpaceOnUse" x1="5369.25" y1="261.9264" x2="5310.6958" y2="369.5144" gradientTransform="matrix(-1 0 0 1 6291.397 0)">
			<stop  offset="0" style="stop-color:#F9B776"/>
			<stop  offset="1" style="stop-color:#F47960"/>
		</linearGradient>
		<path class="st84" d="M951.05,292.99l8.59,20.96c0,0-9.87,6.83-17.81,6.18l-4.29-18.85L951.05,292.99z"/>
		<g>
			
				<linearGradient id="SVGID_79_" gradientUnits="userSpaceOnUse" x1="3969.3044" y1="6106.9341" x2="3943.4268" y2="6141.168" gradientTransform="matrix(-0.817 -0.5767 -0.5767 0.817 7705.3916 -2418.519)">
				<stop  offset="0" style="stop-color:#F9B776"/>
				<stop  offset="1" style="stop-color:#F47960"/>
			</linearGradient>
			<path class="st85" d="M936.54,278.7c-0.2,0.28-6.21,22.02-6.21,22.02l12.49,3.17l8.77-19.76
				C951.58,284.13,939.83,274.03,936.54,278.7z"/>
			<linearGradient id="SVGID_80_" gradientUnits="userSpaceOnUse" x1="935.053" y1="279.1694" x2="966.509" y2="337.5877">
				<stop  offset="0" style="stop-color:#2B3582"/>
				<stop  offset="1" style="stop-color:#150E42"/>
			</linearGradient>
			<path class="st86" d="M946.87,287.13l-3.8,10.76c-0.05,0.14-0.11,0.27-0.2,0.39c-0.52,0.73-2.47,3.12-4.8,0.97
				c-2.11-1.95-4.06-3.71-5.87-4.02c-0.81-0.14-1.59,0.35-1.81,1.14c-0.55,1.98-1.69,6.45-2.1,10.49c-0.08,0.82,0.48,1.56,1.29,1.71
				c2.44,0.46,7.61,1.3,11.93,0.99c0.58-0.04,1.1-0.39,1.34-0.93c1.19-2.6,4.83-10.49,6.19-12.53c1.27-1.92,4.39-1.86,5.7-1.75
				c0.43,0.04,0.85-0.1,1.17-0.38c1.14-1,3.32-3.56,0.26-6.63c-0.64-0.64-0.62-1.68,0.04-2.3c1.32-1.24,2.72-3.43,0.53-6.15
				c-2.23-2.77-5.17-2.33-6.97-1.67c-0.73,0.27-1.52-0.04-1.92-0.71c-0.23-0.38-0.62-0.67-1.3-0.61c-0.92,0.08-1.69-0.69-1.68-1.61
				c0.03-1.77-0.6-4.01-3.68-4.97c-5.45-1.7-8.86,3.57-9.19,7.5c-0.34,3.93,5.68,5.44,9.22,5.17c2.69-0.2,4.69,2.47,5.49,3.76
				C946.98,286.18,947.03,286.68,946.87,287.13z"/>
			
				<linearGradient id="SVGID_81_" gradientUnits="userSpaceOnUse" x1="3931.4036" y1="6134.0449" x2="3952.1597" y2="6112.7495" gradientTransform="matrix(-0.817 -0.5767 -0.5767 0.817 7705.3916 -2418.519)">
				<stop  offset="0" style="stop-color:#F9B776"/>
				<stop  offset="1" style="stop-color:#F47960"/>
			</linearGradient>
			<path class="st87" d="M947.63,300.02c0,0,0.88-6.83,3.72-7.16c2.84-0.33,5.6,2,2.78,5.83
				C950.62,303.45,947.63,300.02,947.63,300.02z"/>
		</g>
	</g>
	<g>
		<linearGradient id="SVGID_82_" gradientUnits="userSpaceOnUse" x1="615.2481" y1="523.5027" x2="502.0905" y2="627.7267">
			<stop  offset="0" style="stop-color:#53D8FF"/>
			<stop  offset="1" style="stop-color:#3840F7"/>
		</linearGradient>
		<path class="st88" d="M601.39,721.18H386.33c-6.86,0-12.42-4.11-12.42-9.17V558.6c0-5.06,5.54-9.16,12.38-9.17L603.08,549
			c6.9-0.01,12.49,4.13,12.45,9.22l-1.72,153.84C613.77,717.11,608.22,721.18,601.39,721.18z"/>
		<path class="st89" d="M459.65,600.42h-52.5c-4,0-7.25-3.25-7.25-7.25V576.4c0-4,3.25-7.25,7.25-7.25h52.5c4,0,7.25,3.25,7.25,7.25
			v16.77C466.9,597.17,463.65,600.42,459.65,600.42z"/>
		<path class="st89" d="M591.18,591.48H484.66c-2.9,0-5.25-2.35-5.25-5.25v-4.69c0-2.9,2.35-5.25,5.25-5.25h106.53
			c2.9,0,5.25,2.35,5.25,5.25v4.69C596.43,589.13,594.08,591.48,591.18,591.48z"/>
		<g>
			<path class="st90" d="M490.13,649v-1.99c0-0.42,0.18-0.83,0.49-1.11l1.93-1.74c4.09-3.66,6.08-5.76,6.14-7.95
				c0-1.53-0.92-2.74-3.08-2.74c-1.61,0-3.03,0.81-4,1.55l-0.78-1.98c-0.28-0.7,0-1.51,0.66-1.87c1.34-0.71,3.08-1.22,5.02-1.22
				c4.23,0,6.57,2.48,6.57,5.88c0,3.14-2.27,5.65-4.98,8.06l-1.73,1.44v0.06h5.56c0.83,0,1.5,0.67,1.5,1.5v0.6
				c0,0.83-0.67,1.5-1.5,1.5H490.13z"/>
			<path class="st90" d="M513.87,647.5v-1.47c0-0.83-0.67-1.5-1.5-1.5h-6.8v-2.42c0-0.28,0.08-0.55,0.23-0.79l6.42-10.34
				c0.27-0.44,0.75-0.71,1.27-0.71h3.03c0.83,0,1.5,0.67,1.5,1.5v9.48h2.25v3.28h-2.25v2.97c0,0.83-0.67,1.5-1.5,1.5h-1.15
				C514.54,649,513.87,648.33,513.87,647.5z M512.37,641.25c0.83,0,1.5-0.67,1.5-1.5v-2.65c0-1.12,0.06-2.28,0.14-3.48h-0.11
				c-0.6,1.19-1.08,2.27-1.7,3.43c-0.02,0.03-0.04,0.07-0.06,0.1l-2.48,4.04v0.06H512.37z"/>
			<path class="st90" d="M522.11,649v-1.99c0-0.42,0.18-0.83,0.49-1.11l1.93-1.74c4.09-3.66,6.08-5.76,6.14-7.95
				c0-1.53-0.92-2.74-3.08-2.74c-1.61,0-3.02,0.81-4,1.55l-0.78-1.98c-0.28-0.7,0-1.51,0.66-1.87c1.34-0.71,3.08-1.22,5.02-1.22
				c4.23,0,6.57,2.48,6.57,5.88c0,3.14-2.27,5.65-4.98,8.06l-1.73,1.44v0.06h5.56c0.83,0,1.5,0.67,1.5,1.5v0.6
				c0,0.83-0.67,1.5-1.5,1.5H522.11z"/>
			<path class="st90" d="M543.7,634.17h-0.06l-3.57,1.7l-0.46-2.11c-0.15-0.69,0.2-1.38,0.83-1.68l3.57-1.66
				c0.2-0.09,0.41-0.14,0.63-0.14h1.8c0.83,0,1.5,0.67,1.5,1.5v15.73c0,0.83-0.67,1.5-1.5,1.5h-1.24c-0.83,0-1.5-0.67-1.5-1.5
				V634.17z"/>
			<path class="st90" d="M554.33,646.67c0-1.55,1.07-2.68,2.59-2.68s2.56,1.1,2.56,2.68c0,1.53-1.04,2.65-2.59,2.65
				C555.4,649.32,554.33,648.19,554.33,646.67z"/>
			<path class="st90" d="M574.09,632.38c0,0.83-0.67,1.5-1.5,1.5h-5.76l-0.4,2.88c0.4-0.06,0.75-0.06,1.21-0.06
				c1.79,0,3.6,0.4,4.92,1.35c1.41,0.95,2.27,2.51,2.27,4.7c0,3.49-2.99,6.57-8.04,6.57c-1.54,0-2.91-0.24-3.95-0.56
				c-0.73-0.23-1.14-1.01-0.96-1.76l0.48-2.03c0.83,0.4,2.53,0.92,4.23,0.92c1.82,0,3.75-0.86,3.75-2.85c0-1.93-1.53-3.11-5.27-3.11
				c-1.04,0-1.76,0.06-2.54,0.17l1.07-8.51c0.09-0.75,0.73-1.31,1.49-1.31h7.49c0.83,0,1.5,0.67,1.5,1.5V632.38z"/>
			<path class="st90" d="M585.33,647.5v-1.47c0-0.83-0.67-1.5-1.5-1.5h-6.8v-2.42c0-0.28,0.08-0.55,0.23-0.79l6.42-10.34
				c0.27-0.44,0.75-0.71,1.27-0.71h3.03c0.83,0,1.5,0.67,1.5,1.5v9.48h2.25v3.28h-2.25v2.97c0,0.83-0.67,1.5-1.5,1.5h-1.15
				C586.01,649,585.33,648.33,585.33,647.5z M583.84,641.25c0.83,0,1.5-0.67,1.5-1.5v-2.65c0-1.12,0.06-2.28,0.14-3.48h-0.11
				c-0.6,1.19-1.08,2.27-1.7,3.43c-0.02,0.03-0.04,0.07-0.06,0.1l-2.48,4.04v0.06H583.84z"/>
			<path class="st90" d="M536.03,674.57v2.91h-7.55v-2.91H536.03z"/>
			<path class="st90" d="M545.86,682.08v-1.47c0-0.83-0.67-1.5-1.5-1.5h-6.8v-2.42c0-0.28,0.08-0.55,0.23-0.79l6.42-10.34
				c0.27-0.44,0.75-0.71,1.27-0.71h3.03c0.83,0,1.5,0.67,1.5,1.5v9.48h2.25v3.28H550v2.97c0,0.83-0.67,1.5-1.5,1.5h-1.15
				C546.53,683.58,545.86,682.91,545.86,682.08z M544.36,675.83c0.83,0,1.5-0.67,1.5-1.5v-2.65c0-1.12,0.06-2.28,0.14-3.48h-0.11
				c-0.6,1.19-1.08,2.27-1.7,3.43c-0.02,0.03-0.04,0.07-0.06,0.1l-2.48,4.04v0.06H544.36z"/>
			<path class="st90" d="M554.33,681.25c0-1.55,1.07-2.68,2.59-2.68c1.53,0,2.56,1.09,2.56,2.68c0,1.53-1.04,2.65-2.59,2.65
				C555.4,683.9,554.33,682.78,554.33,681.25z"/>
			<path class="st90" d="M567.18,668.75h-0.06l-3.57,1.7l-0.46-2.11c-0.15-0.69,0.2-1.38,0.83-1.68l3.57-1.66
				c0.2-0.09,0.41-0.14,0.63-0.14h1.8c0.83,0,1.5,0.67,1.5,1.5v15.73c0,0.83-0.67,1.5-1.5,1.5h-1.24c-0.83,0-1.5-0.67-1.5-1.5
				V668.75z"/>
			<path class="st90" d="M591.01,664.86v2.42c0,0.23-0.05,0.45-0.15,0.65l-7.16,14.8c-0.25,0.52-0.77,0.85-1.35,0.85h-1.25
				c-1.12,0-1.84-1.18-1.33-2.18l6.6-12.88v-0.06h-7.08c-0.83,0-1.5-0.67-1.5-1.5v-0.61c0-0.83,0.67-1.5,1.5-1.5H591.01z"/>
		</g>
		<g>
			<rect x="417.99" y="632.65" class="st90" width="12.11" height="37.01"/>
			<g>
				<polygon class="st90" points="403.51,645.54 424.04,666.08 444.57,645.54 444.57,662.97 424.04,683.5 403.51,662.97 				"/>
			</g>
		</g>
	</g>
	<g>
		<g>
			
				<linearGradient id="SVGID_83_" gradientUnits="userSpaceOnUse" x1="-1331.3043" y1="735.7321" x2="-1319.9563" y2="664.3496" gradientTransform="matrix(-1 0 0 1 -1070.5054 0)">
				<stop  offset="0" style="stop-color:#53D8FF"/>
				<stop  offset="1" style="stop-color:#3840F7"/>
			</linearGradient>
			<polygon class="st91" points="254.08,738.34 259.33,738.34 259.33,681.56 254.08,681.56 			"/>
			
				<linearGradient id="SVGID_84_" gradientUnits="userSpaceOnUse" x1="-1326.7563" y1="736.4509" x2="-1315.4009" y2="665.0217" gradientTransform="matrix(-1 0 0 1 -1070.5054 0)">
				<stop  offset="0" style="stop-color:#53D8FF"/>
				<stop  offset="1" style="stop-color:#3840F7"/>
			</linearGradient>
			<path class="st92" d="M233.71,739.44h45.99v-0.05c0-1.86-1.51-3.37-3.37-3.37h-39.24c-1.86,0-3.37,1.51-3.37,3.37V739.44z"/>
			
				<linearGradient id="SVGID_85_" gradientUnits="userSpaceOnUse" x1="-1335.5216" y1="735.0621" x2="-1324.1736" y2="663.679" gradientTransform="matrix(-1 0 0 1 -1070.5054 0)">
				<stop  offset="0" style="stop-color:#53D8FF"/>
				<stop  offset="1" style="stop-color:#3840F7"/>
			</linearGradient>
			<path class="st93" d="M226.88,679.59c0,3.11,2.54,5.65,5.65,5.65h46.53c3.11,0,5.65-2.54,5.65-5.65v-5.11
				c0-3.11-2.54-5.65-5.65-5.65h-46.53c-3.11,0-5.65,2.54-5.65,5.65V679.59z"/>
		</g>
		<g>
			
				<linearGradient id="SVGID_86_" gradientUnits="userSpaceOnUse" x1="-1384.5043" y1="690.2828" x2="-1347.1719" y2="690.2828" gradientTransform="matrix(-1 0 0 1 -1070.5054 0)">
				<stop  offset="0" style="stop-color:#F9B776"/>
				<stop  offset="1" style="stop-color:#F47960"/>
			</linearGradient>
			<path class="st94" d="M295.46,643.7c0,0,7.8,1.21,16.57,7.07c1.38,0.92,2.14,2.53,1.93,4.18c-1.05,8.32-5.37,35.25-19.61,61.55
				c-0.75,1.39-0.97,3-0.64,4.54l2.47,11.51l4.59,4.3h-11.82l-7.87-21.29l3.36-1.06c2.61-0.82,4.4-3.22,4.45-5.96l0.39-22.84
				c-0.34-10.18,6.24-17.2,6.24-17.2l-18.87-0.92L295.46,643.7z"/>
			
				<linearGradient id="SVGID_87_" gradientUnits="userSpaceOnUse" x1="-1361.6621" y1="714.6083" x2="-1367.1531" y2="798.8033" gradientTransform="matrix(-1 0 0 1 -1070.5054 0)">
				<stop  offset="0" style="stop-color:#FDF53F"/>
				<stop  offset="1" style="stop-color:#D93C65"/>
			</linearGradient>
			<path class="st95" d="M305.4,738.94c1.08,1.41-11.58,3.27-17.98,0.19c0,0-8.87-15.43-8.87-23.37c0,0,0.7-1.62,5.91-1.25
				c0,0,2.98,18.27,6.12,20.31c3.14,2.05,8.8,0.21,8.8,0.21S303.81,736.86,305.4,738.94z"/>
			
				<linearGradient id="SVGID_88_" gradientUnits="userSpaceOnUse" x1="-1428.3385" y1="692.8328" x2="-1349.5599" y2="692.8328" gradientTransform="matrix(-1 0 0 1 -1070.5054 0)">
				<stop  offset="0" style="stop-color:#F9B776"/>
				<stop  offset="1" style="stop-color:#F47960"/>
			</linearGradient>
			<path class="st96" d="M279.05,668.84c0.1-0.17,20.32-2.43,20.32-2.43s-0.66,6.15,1.41,14.61c2.07,8.46,31.76,45.13,31.76,45.13
				l-3.11,9.87c9.62,3.35,19.09,3.89,28.41,1.71l-19.29-11.58c0,0-18.05-61.53-29.11-72.5l-20.27-7.01L279.05,668.84z"/>
			<linearGradient id="SVGID_89_" gradientUnits="userSpaceOnUse" x1="260.31" y1="661.4175" x2="288.0407" y2="603.4352">
				<stop  offset="0" style="stop-color:#A737D5"/>
				<stop  offset="1" style="stop-color:#EF497A"/>
			</linearGradient>
			<path class="st97" d="M233.71,633.04c0,0-11.65,17.33-12.61,25.23c-0.96,7.9,3.19,11.12,15.41,11.65
				c12.22,0.53,44.86,0.52,44.86,0.52l27.85-23.8c0,0-20.3-7.24-25.57-9.29C278.37,635.3,233.71,633.04,233.71,633.04z"/>
			
				<linearGradient id="SVGID_90_" gradientUnits="userSpaceOnUse" x1="-1414.6493" y1="711.1526" x2="-1420.1403" y2="795.3478" gradientTransform="matrix(-1 0 0 1 -1070.5054 0)">
				<stop  offset="0" style="stop-color:#FDF53F"/>
				<stop  offset="1" style="stop-color:#D93C65"/>
			</linearGradient>
			<path class="st98" d="M330.6,732.69c0,0-3.35,3.25-1.09,6.86c0,0,26.55,4.71,33.76,2.57c0,0-1.5-3.42-9.61-7.3l0.6,0.46
				c0.76,0.58,0.31,1.79-0.64,1.74C348.27,736.71,337.2,735.73,330.6,732.69z"/>
		</g>
		<g>
			<linearGradient id="SVGID_91_" gradientUnits="userSpaceOnUse" x1="219.8192" y1="513.9272" x2="229.903" y2="599.6404">
				<stop  offset="0" style="stop-color:#C32B78"/>
				<stop  offset="1" style="stop-color:#593092"/>
			</linearGradient>
			<path class="st99" d="M279.38,544.83c5.53-5.9,7.76-10.84,6.65-16.66c-1.63-8.56-15.78-15.94-28.33-10.04
				c-13.1,6.16-9.38,22.67-23.07,29.54c-10.69,5.37-17.57-2.39-30.47-0.17c-21.39,3.68-42.18,31.88-38.68,53.18
				c5.73,34.82,76.53,51.92,96.16,32.44C279.04,615.84,253.41,572.53,279.38,544.83z"/>
			<linearGradient id="SVGID_92_" gradientUnits="userSpaceOnUse" x1="210.4989" y1="550.1108" x2="262.179" y2="608.0933">
				<stop  offset="0" style="stop-color:#A737D5"/>
				<stop  offset="1" style="stop-color:#EF497A"/>
			</linearGradient>
			<path class="st100" d="M265.21,630.74c0,0,13.57-12.92,20.24-21.47c3.61-4.63,4.74-10.71,3.07-16.34
				c-3.05-10.27-8.47-20.91-8.96-22.57c-0.76-2.54-15.97-2.43-15.97-2.43s-29.93,19.43-41.69,52.33l13.21,4.11
				c0,0,7.82-13.11,15.54-21.45c0,0-13.36,17.65-13.83,24.88L265.21,630.74z"/>
			
				<linearGradient id="SVGID_93_" gradientUnits="userSpaceOnUse" x1="-1339.8536" y1="584.7118" x2="-1343.7941" y2="559.4279" gradientTransform="matrix(-1 0 0 1 -1070.5054 0)">
				<stop  offset="0" style="stop-color:#F9B776"/>
				<stop  offset="1" style="stop-color:#F47960"/>
			</linearGradient>
			<path class="st101" d="M281.41,556.18c-0.16,0.53-4.13,13.69-4.44,13.96c-0.31,0.27-8.71,0.72-12.66-1.98l6.71-14.04
				L281.41,556.18z"/>
			
				<linearGradient id="SVGID_94_" gradientUnits="userSpaceOnUse" x1="-1356.8846" y1="537.0618" x2="-1322.0784" y2="560.7039" gradientTransform="matrix(-1 0 0 1 -1070.5054 0)">
				<stop  offset="0" style="stop-color:#F9B776"/>
				<stop  offset="1" style="stop-color:#F47960"/>
			</linearGradient>
			<path class="st102" d="M274.89,528.54c0,0,7.17,3.03,12.04,13.38c4.87,10.36,1.23,15.14-3.34,15.8
				c-4.57,0.66-11.41,0.56-18.64-6.13C257.72,544.89,265.57,524.95,274.89,528.54z"/>
			<linearGradient id="SVGID_95_" gradientUnits="userSpaceOnUse" x1="264.4874" y1="508.6721" x2="274.5713" y2="594.3851">
				<stop  offset="0" style="stop-color:#C32B78"/>
				<stop  offset="1" style="stop-color:#593092"/>
			</linearGradient>
			<path class="st103" d="M269.81,546.05c0,0-5.41-15.15,8.03-15.33l3.16,2.21c0,0,4.93-8.4-3.16-12.41
				c-8.09-4.01-20.16-0.44-23.61,10.46c-3.44,10.9-1.43,17.94,4.3,23.15c5.73,5.22,8.09-0.7,8.09-0.7s-3.12-4.88-1.85-7.49
				c1.27-2.61,4.2,0.54,4.2,0.54L269.81,546.05z"/>
			
				<linearGradient id="SVGID_96_" gradientUnits="userSpaceOnUse" x1="-1354.7988" y1="533.9902" x2="-1319.9918" y2="557.6326" gradientTransform="matrix(-1 0 0 1 -1070.5054 0)">
				<stop  offset="0" style="stop-color:#F9B776"/>
				<stop  offset="1" style="stop-color:#F47960"/>
			</linearGradient>
			<path class="st104" d="M268.31,547.74c0,0-2.73-7.81-6.38-4.7c-3.65,3.11,2.96,7.21,5.55,8.54L268.31,547.74z"/>
			
				<linearGradient id="SVGID_97_" gradientUnits="userSpaceOnUse" x1="-1317.2323" y1="628.4906" x2="-1243.2295" y2="628.4906" gradientTransform="matrix(-1 0 0 1 -1070.5054 0)">
				<stop  offset="0" style="stop-color:#F9B776"/>
				<stop  offset="1" style="stop-color:#F47960"/>
			</linearGradient>
			<path class="st105" d="M292.85,631.7l-9.97-9.61l-13.79,5.82c0,0-13.73,2.13-21.58,0c-7.86-2.13-7.86-2.13-7.86-2.13l-17.75-5.53
				l-2.79,7.88c-0.71,2,0,4.22,1.73,5.45c1.54,1.09,3.34,2.29,4.48,2.79c2.34,1.02,57.63-0.71,57.63-0.71L292.85,631.7z"/>
		</g>
		<g>
			
				<linearGradient id="SVGID_98_" gradientUnits="userSpaceOnUse" x1="-1379.5959" y1="672.3002" x2="-1426.1813" y2="685.0679" gradientTransform="matrix(-0.9988 -0.0494 -0.0494 0.9988 -1099.4073 -118.7758)">
				<stop  offset="0" style="stop-color:#2B3582"/>
				<stop  offset="1" style="stop-color:#150E42"/>
			</linearGradient>
			<path class="st106" d="M255.13,636.23c0.04,0,0.09,0,0.13,0l57.82-0.06c1.43,0,2.59-1.16,2.59-2.59c0-1.43-1.17-2.61-2.59-2.59
				l-57.82,0.06c-1.43,0-2.59,1.16-2.59,2.59C252.67,635.03,253.76,636.16,255.13,636.23z"/>
			
				<linearGradient id="SVGID_99_" gradientUnits="userSpaceOnUse" x1="-1378.8779" y1="590.7751" x2="-1411.9323" y2="625.7115" gradientTransform="matrix(-1 0 0 1 -1070.5054 0)">
				<stop  offset="0" style="stop-color:#2B3582"/>
				<stop  offset="1" style="stop-color:#150E42"/>
			</linearGradient>
			<path class="st107" d="M365.06,583.74h-48.15c-3.55,0-6.79,2.05-8.3,5.26l-22.26,47.2h59.84c2.29,0,4.35-1.4,5.19-3.53
				l17.26-43.68C369.63,586.47,367.77,583.74,365.06,583.74z"/>
			
				<linearGradient id="SVGID_100_" gradientUnits="userSpaceOnUse" x1="-1398.8607" y1="599.474" x2="-1413.8588" y2="622.0593" gradientTransform="matrix(-1 0 0 1 -1070.5054 0)">
				<stop  offset="0" style="stop-color:#FDF53F"/>
				<stop  offset="1" style="stop-color:#D93C65"/>
			</linearGradient>
			<path class="st108" d="M331.14,607.94c-1.04,3.24-0.27,6.39,1.72,7.03c1.99,0.64,4.46-1.47,5.5-4.71
				c1.04-3.24,0.27-6.39-1.72-7.03C334.64,602.59,332.18,604.7,331.14,607.94z"/>
		</g>
		<g>
			
				<linearGradient id="SVGID_101_" gradientUnits="userSpaceOnUse" x1="-1491.1907" y1="641.1581" x2="-1244.7802" y2="641.1581" gradientTransform="matrix(-1 0 0 1 -1070.5054 0)">
				<stop  offset="0" style="stop-color:#9CFFFB"/>
				<stop  offset="1" style="stop-color:#9BFFFA"/>
			</linearGradient>
			<path class="st109" d="M174.32,638.34c-0.14-0.66,0.05-1.33,0.5-1.85c0.45-0.52,1.13-0.81,1.84-0.81h241.28
				c0.94,0,1.81,0.45,2.31,1.19s0.57,1.67,0.18,2.47l-2.61,5.3c-0.6,1.21-1.9,1.99-3.32,1.99H178.32c-1.33,0-2.47-0.88-2.72-2.1
				L174.32,638.34z"/>
			<g>
				
					<linearGradient id="SVGID_102_" gradientUnits="userSpaceOnUse" x1="-1477.0381" y1="695.1675" x2="-1428.3951" y2="695.1675" gradientTransform="matrix(-1 0 0 1 -1070.5054 0)">
					<stop  offset="0" style="stop-color:#9CFFFB"/>
					<stop  offset="1" style="stop-color:#9BFFFA"/>
				</linearGradient>
				<path class="st110" d="M404.42,750.15c0.28,0,0.56-0.06,0.84-0.18c1.07-0.47,1.57-1.75,1.11-2.85L361.95,641.5
					c-0.46-1.1-1.71-1.61-2.78-1.13c-1.07,0.47-1.57,1.75-1.11,2.85l44.41,105.62C402.81,749.65,403.6,750.15,404.42,750.15z"/>
				
					<linearGradient id="SVGID_103_" gradientUnits="userSpaceOnUse" x1="-1471.4208" y1="695.1674" x2="-1422.7778" y2="695.1674" gradientTransform="matrix(-1 0 0 1 -1070.5054 0)">
					<stop  offset="0" style="stop-color:#9CFFFB"/>
					<stop  offset="1" style="stop-color:#9BFFFA"/>
				</linearGradient>
				<path class="st111" d="M354.39,750.15c0.82,0,1.6-0.49,1.95-1.31l44.41-105.62c0.46-1.1-0.03-2.37-1.11-2.85
					c-1.07-0.47-2.32,0.03-2.78,1.13l-44.41,105.62c-0.46,1.1,0.03,2.37,1.11,2.85C353.83,750.09,354.11,750.15,354.39,750.15z"/>
				
					<linearGradient id="SVGID_104_" gradientUnits="userSpaceOnUse" x1="-1302.1682" y1="695.1675" x2="-1253.5253" y2="695.1675" gradientTransform="matrix(-1 0 0 1 -1070.5054 0)">
					<stop  offset="0" style="stop-color:#9CFFFB"/>
					<stop  offset="1" style="stop-color:#9BFFFA"/>
				</linearGradient>
				<path class="st112" d="M229.55,750.15c0.28,0,0.56-0.06,0.84-0.18c1.07-0.47,1.57-1.75,1.11-2.85L187.08,641.5
					c-0.46-1.1-1.71-1.61-2.78-1.13c-1.07,0.47-1.57,1.75-1.11,2.85l44.41,105.62C227.94,749.65,228.73,750.15,229.55,750.15z"/>
				
					<linearGradient id="SVGID_105_" gradientUnits="userSpaceOnUse" x1="-1296.5511" y1="695.1674" x2="-1247.9082" y2="695.1674" gradientTransform="matrix(-1 0 0 1 -1070.5054 0)">
					<stop  offset="0" style="stop-color:#9CFFFB"/>
					<stop  offset="1" style="stop-color:#9BFFFA"/>
				</linearGradient>
				<path class="st113" d="M179.52,750.15c0.82,0,1.6-0.49,1.95-1.31l44.41-105.62c0.46-1.1-0.03-2.37-1.11-2.85
					c-1.07-0.47-2.32,0.03-2.78,1.13l-44.41,105.62c-0.46,1.1,0.03,2.37,1.11,2.85C178.96,750.09,179.24,750.15,179.52,750.15z"/>
			</g>
		</g>
	</g>
	<g>
		<g>
			
				<linearGradient id="SVGID_106_" gradientUnits="userSpaceOnUse" x1="366.0866" y1="-2540.1238" x2="235.3244" y2="-2028.9611" gradientTransform="matrix(1 0 0 -1 0 -2140)">
				<stop  offset="0" style="stop-color:#53D8FF"/>
				<stop  offset="1" style="stop-color:#3840F7"/>
			</linearGradient>
			<path class="st114" d="M424.07,239.07l-93.25,128.34c-2.51,3.45-10.3,3.45-12.81,0l-93.25-128.34c-2.13-2.93,1.28-6.26,6.4-6.26
				h30.23c3.89,0,7.04-1.98,7.04-4.42V90.42c0-2.44,3.15-4.42,7.04-4.42h97.88c3.89,0,7.04,1.98,7.04,4.42v137.97
				c0,2.44,3.15,4.42,7.04,4.42h30.24C422.8,232.81,426.2,236.15,424.07,239.07z"/>
		</g>
		<g class="st115">
			<path class="st3" d="M278.44,125.75c0.19-0.82,1.07-1.28,1.84-0.95c1.78,0.76,4.05,1.37,6.36,1.37c3.24,0,4.95-1.43,4.95-3.61
				c0-2.08-1.48-3.26-5.23-4.7c-5.18-1.93-8.56-4.99-8.56-9.84c0-5.68,4.44-10.03,11.8-10.03c2.87,0,5.13,0.53,6.87,1.21
				c0.64,0.25,0.97,0.94,0.8,1.6l-0.88,3.39c-0.2,0.78-1.04,1.23-1.79,0.94c-1.27-0.5-3-0.96-5.14-0.96c-3.05,0-4.54,1.48-4.54,3.21
				c0,2.13,1.76,3.06,5.79,4.7c5.51,2.17,8.1,5.24,8.1,9.94c0,5.59-4.03,10.33-12.59,10.33c-2.98,0-5.94-0.69-7.85-1.53
				c-0.59-0.26-0.89-0.91-0.75-1.54L278.44,125.75z"/>
			<path class="st3" d="M320.79,117.77h-8.76c-0.75,0-1.36,0.61-1.36,1.36v5.19c0,0.75,0.61,1.36,1.36,1.36h10.1
				c0.75,0,1.36,0.61,1.36,1.36v3.46c0,0.75-0.61,1.36-1.36,1.36h-17.18c-0.75,0-1.36-0.61-1.36-1.36V99.9
				c0-0.75,0.61-1.36,1.36-1.36h16.53c0.75,0,1.36,0.61,1.36,1.36v3.46c0,0.75-0.61,1.36-1.36,1.36h-9.45
				c-0.75,0-1.36,0.61-1.36,1.36v4.2c0,0.75,0.61,1.36,1.36,1.36h8.76c0.75,0,1.36,0.61,1.36,1.36v3.41
				C322.15,117.16,321.54,117.77,320.79,117.77z"/>
			<path class="st3" d="M329.67,98.54h4.36c0.75,0,1.36,0.61,1.36,1.36v25.63h11.04c0.75,0,1.36,0.61,1.36,1.36v3.61
				c0,0.75-0.61,1.36-1.36,1.36h-16.77c-0.75,0-1.36-0.61-1.36-1.36V99.9C328.31,99.15,328.92,98.54,329.67,98.54z"/>
			<path class="st3" d="M353.32,98.54h4.36c0.75,0,1.36,0.61,1.36,1.36v25.63h11.04c0.75,0,1.36,0.61,1.36,1.36v3.61
				c0,0.75-0.61,1.36-1.36,1.36h-16.77c-0.75,0-1.36-0.61-1.36-1.36V99.9C351.96,99.15,352.57,98.54,353.32,98.54z"/>
		</g>
	</g>
</g>
</svg>
