<?xml version="1.0" encoding="utf-8"?>
<!-- Generator: Adobe Illustrator 23.0.3, SVG Export Plug-In . SVG Version: 6.00 Build 0)  -->
<svg version="1.1" id="Wells_Fargo" xmlns="http://www.w3.org/2000/svg" xmlns:xlink="http://www.w3.org/1999/xlink" x="0px"
	 y="0px" viewBox="0 0 233.7335815 251.7335815" style="enable-background:new 0 0 233.7335815 251.7335815;" xml:space="preserve">
<style type="text/css">
	.st0{fill:#FFCD41;}
	.st1{fill:#D71E28;}
	.st2{fill:#FFFFFF;}
</style>
<g>
	<rect id="Yellow" x="3.5999999" y="230.1335754" class="st0" width="226.5335693" height="18"/>
	<g>
		<rect id="Box" x="3.5999999" y="3.5999999" class="st1" width="226.5335693" height="226.5335693"/>
		<path id="Type" class="st2" d="M36.0479965,106.4583054l-9.0513783-31.5255051h-4.1143112v-4.4744568H39.647995v4.4744568
			h-4.8342896l6.0172958,21.702858l7.1997833-26.1773148h7.4057617l7.3544731,26.2281799l5.9142036-21.7537231h-5.0400543
			v-4.4744568h43.6155777v11.6743469h-3.7028809l-0.359726-1.3889923c-1.1317215-4.3193436-2.3143158-5.8108978-5.7600327-5.8108978
			h-8.5374832v10.8514862h10.3374786c0.4114304,0.8737259,0.5655975,1.4914474,0.5655975,2.4685822
			c0,1.0279007-0.1541672,1.6965942-0.5655975,2.5710526H88.9206238v11.1599274h8.8972092
			c3.3431549,0,4.8346024-1.4397507,5.8630219-6.016777l0.4114304-1.7999954h3.7028809v12.2912292H76.8866501v-4.4744568h4.3714752
			V74.9328003h-7.1013031l-9.000206,31.5255051h-7.1486015l-7.3027687-26.125618l-7.5086441,26.125618H36.0479965z
			 M140.7115479,94.1670761h-3.7028809l-0.411438,1.7999954c-1.0283051,4.5770264-2.4685822,6.016777-5.8625031,6.016777h-7.1490173
			V74.9328003h4.8858948v-4.4744568h-16.9198608v4.4744568h4.3714676v27.0510483h-4.3714676v4.4744568h29.1598053V94.1670761z
			 M173.1140289,94.1670761h-3.7028809l-0.411438,1.7999954c-1.0284119,4.5770264-2.4685822,6.016777-5.8625946,6.016777h-7.1489258
			V74.9328003h4.8858948v-4.4744568h-16.9199677v4.4744568h4.3714752v27.0510483h-4.3714752v4.4744568h29.1599121V94.1670761z
			 M206.0308228,96.4297867c0-5.6574631-3.4457245-9.5659027-9.9256287-11.0573502l-6.5316162-1.4915619
			c-3.8057709-0.8737259-5.3997803-2.3651733-5.3997803-4.8854675c0-3.0346069,2.4168854-4.9370651,7.1484985-4.9370651
			c4.7312927,0,7.5087433,1.697319,8.5883484,5.7083282l0.4631348,1.7490311h3.7028809v-8.8972168
			c-4.1660156-2.1092758-8.5887756-3.1888733-13.0632324-3.1888733c-8.79422,0-14.4513702,4.2168808-14.4513702,11.0056458
			c0,5.2456207,3.2914429,9.1030884,9.6171875,10.4912338l6.5316162,1.4405823
			c4.1655884,0.9254379,5.7083282,2.5711594,5.7083282,5.2965927c0,3.3430481-2.5198669,5.1947479-7.5600281,5.1947479
			c-5.7083435,0-8.6399536-2.2627182-9.9255371-6.582901l-0.6686859-2.2117386h-3.7028809v10.0802155
			c4.6800079,2.3143158,9.1544647,3.3430481,15.1716614,3.3430481
			C200.3737793,107.4870377,206.0308228,103.1668549,206.0308228,96.4297867z M49.7794991,129.5028534
			c3.4456177,0,4.6286278,1.4914551,5.7600365,5.8108978l0.3601456,1.3888855h3.7028809v-11.6742401H28.5910587v4.4744568h4.3714695
			v27.0510406h-4.3714695v4.4744568h17.1770115v-4.4744568h-5.1426239v-10.491333h10.5942192
			c0.4114304-0.8745728,0.5657043-1.5431519,0.5657043-2.5711517c0-0.9770355-0.154274-1.5947571-0.5657043-2.4685974H40.6254463
			v-11.5199585H49.7794991z M128.1615906,156.9656372c0.3088531,0.5652924,0.463028,1.2339783,0.463028,2.1084442
			c0,0.8745728-0.1541748,1.5431519-0.463028,2.1084442c-1.1314163,0.1542664-2.5711594,0.2568359-4.0114365,0.2568359
			c-4.9883499,0-7.4057541-2.0567322-7.9713593-6.8397369l-0.2055588-1.7998962
			c-0.6173019-5.1940155-2.3143082-7.1998901-7.9717789-7.1998901h-2.8283081v10.9540558h4.8854675v4.4744568H77.70784v-4.4744568
			h4.2173004l-2.3660202-6.4287262H66.187767l-2.3656006,6.4287262h4.31987v4.4744568H54.5135269v-4.4744568h3.5998917
			l12.60009-31.5254974h6.8401566l12.857254,31.5254974h7.0993118v-27.0510406h-4.3715744v-4.4744568h20.6745453
			c7.3540497,0,12.1369553,3.6515961,12.1369553,9.5141907c0,5.8116455-4.7829056,8.8972168-9.4112167,9.1030884v0.1542816
			c4.6799164,0.3601379,6.582901,2.9828949,7.0456161,7.0455017l0.205452,1.9025726
			c0.3088608,2.9830017,0.9258499,4.3201752,3.2914505,4.3201752
			C127.493309,157.0682068,127.853035,157.01651,128.1615906,156.9656372z M77.9133987,145.7541199l-5.0397491-13.6285095
			l-5.0401611,13.6285095H77.9133987z M118.1846695,135.2628937c0-3.7550049-2.3143158-5.7600403-6.9430466-5.7600403h-6.0684738
			v11.5709381h6.0684738C115.8186493,141.0737915,118.1846695,138.9653473,118.1846695,135.2628937z M149.4557343,144.622818
			c0,1.0278931,0.1542816,1.696579,0.5657043,2.519455h6.1201935v9.1030731
			c-2.0058746,0.8228607-4.011322,1.1830139-6.0684814,1.1830139c-7.4057617,0-11.2633362-5.2973175-11.2633362-14.4512634
			c0-9.1549072,3.8575745-14.4522247,10.8518982-14.4522247c4.6799164,0,7.4056549,2.3144226,8.9997864,6.3261719
			l0.5655975,1.439743h3.7028809v-9.205658c-4.6283112-2.2110062-8.79422-3.1880417-13.6284027-3.1880417
			c-11.314621,0-18.9258423,7.5599289-18.9258423,19.130867c0,11.6233826,7.4057617,19.029129,18.9258423,19.029129
			c4.5769196,0,9.3086395-1.2855682,14.3999786-3.8058624v-16.0461273h-13.6801147
			C149.6100159,143.0279541,149.4557343,143.6456757,149.4557343,144.622818z M207.2642822,142.9770966
			c0,11.2115173-7.9713593,19.0799866-19.1312866,19.0799866c-11.108963,0-19.1317139-7.8684692-19.1317139-19.0799866
			c0-11.1607666,8.0743561-19.0800095,19.1317139-19.0800095
			C199.2412109,123.8970871,207.2642822,131.81633,207.2642822,142.9770966z M198.8302002,142.9770966
			c0-9.1031952-3.7545776-14.4005127-10.6972046-14.4005127c-6.9430542,0-10.6972198,5.2973175-10.6972198,14.4005127
			c0,9.1539459,3.7025757,14.3996582,10.6972198,14.3996582
			C195.1269073,157.3767548,198.8302002,152.1310425,198.8302002,142.9770966z"/>
	</g>
</g>
</svg>
