<!--?xml version="1.0" encoding="utf-8"?-->
<!-- Generator: Adobe Illustrator 24.3.0, SVG Export Plug-In . SVG Version: 6.00 Build 0)  -->
<svg version="1.1" id="Layer_1" xmlns="http://www.w3.org/2000/svg" xmlns:xlink="http://www.w3.org/1999/xlink" x="0px" y="0px" viewBox="0 0 642 612" style="" xml:space="preserve">
<style type="text/css">
	.st0{fill:#FFFFFF;}
	.st1{fill:none;stroke:#FFFFFF;stroke-width:4;stroke-miterlimit:10;}
</style>
<path class="st0 oxdzWeRq_0" d="M35.7,608.6c-8-2.9-13.4-8.3-16.3-16.3c-1.1-3.1-1.3-23.8-1.4-111.9V372.2l7.3-0.4c6-0.3,8.2-0.8,11.5-3.1
	c6.3-4.1,9.5-9.7,10-17.1l0.4-6.1l75.5-43.4l75.5-43.3l5.2,2.6c6.5,3.3,15.3,3.6,21.1,0.6l3.9-2l6.5,6.3
	c3.6,3.5,41.5,38.7,84.2,78.4l77.6,72.1l0.5,5.6c0.6,6.7,4,12.4,10,16.3c3.7,2.5,5.1,2.8,12.3,2.8c7.2,0,8.6-0.3,12.3-2.8
	c6.1-4,9.5-9.6,10-16.8l0.4-5.9l62.7-41.2c112-73.6,101.3-67,105-65.7c1.7,0.6,6.1,0.9,9.7,0.7l6.4-0.4l-0.2,141.1l-0.3,141l-2.1,4
	c-2.8,5.1-6.8,9.1-11.9,11.9l-4,2.1l-284,0.2C86.9,609.9,38.9,609.7,35.7,608.6z M119.9,580l2.2-4h12.3h12.2l2.3,4
	c2.2,3.9,2.3,4,7.7,4c3.1,0,5.4-0.4,5.2-0.8c-0.1-0.5-5.2-9.1-11.2-19.1l-10.9-18.2l-5,0.3l-5.1,0.3l-11.3,18.8L107.1,584h5.3
	C117.5,584,117.7,583.9,119.9,580z M182,577v-7h4c3.5,0,4.9,0.8,11.9,7l7.9,7h7.2h7.3l-8.8-6.7l-8.8-6.8l5.3-0.5c7-0.8,8-2.3,8-12.2
	c0-12,0.5-11.8-24-11.8h-20v19v19h5h5V577z M273,580.5V577h-16h-16v-4.5V568h9.5h9.5v-3.5V561h-9.5H241v-4v-4h16h16v-3.5V546h-21
	h-21v19v19h21h21V580.5z M333,576v-8h14h14v8v8h5.5h5.5v-19v-19h-5.5H361v7.5v7.5h-14h-14v-7.5V546h-5h-5v19v19h5h5V576z M398,565
	v-19h-5h-5v19v19h5h5V565z M459.8,582.4c2-1.4,2.2-2.3,2.2-11V562h-12.5H437v3.5v3.5h7.5h7.5v4v4h-14h-14v-12v-12h14
	c13.3,0,14,0.1,14,2c0,2.2,1.5,2.5,6.9,1.4c2.7-0.6,3.1-1.1,3.1-4c0-5.9-1.8-6.4-24.2-6.4c-21.2,0-22.1,0.2-23.4,5.5
	c-0.3,1.2-0.4,8.4-0.2,16c0.3,12.2,0.5,13.8,2.2,15.1C419.4,584.8,456.7,584.6,459.8,582.4z M488,576v-8h14h14v8v8h5.5h5.5v-19v-19
	h-5.5H516v7.5v7.5h-14h-14v-7.5V546h-5h-5v19v19h5h5V576z M192.1,510.1c2.1-1.7,2.3-2.7,2.3-9.4c0-11.6-0.1-11.7-19.1-11.7H160v-4
	v-4h12.5c11.8,0,12.5,0.1,12.5,2c0,2.1,0.9,2.4,5.9,1.4c2.6-0.6,3.1-1.1,3.1-3.5c0-1.6-0.9-3.8-2-4.9c-1.8-1.8-3.3-2-19.5-2
	c-21.4,0-21.5,0.1-21.5,11c0,10.7,0.4,11,19,11h15v4.5v4.5h-13.5H158v-2.6c0-2.4-0.3-2.6-3.1-2c-1.7,0.3-3.8,0.6-4.5,0.6
	c-2.7,0-1.1,8.2,2,10.2c0.6,0.4,9.3,0.8,19.2,0.8C187.9,512,190,511.8,192.1,510.1z M235,496.5V481h9h9v-3.5V474h-23.5H206v3.5v3.5
	h9h9v15.5V512h5.5h5.5V496.5z M312,510c1.8-1.8,2-3.3,2-17c0-20.4,1.9-19-24.9-19c-22.6,0-23.4,0.2-24.7,5.5
	c-0.3,1.2-0.4,8.4-0.2,16c0.3,12.2,0.5,13.8,2.2,15.1c1.6,1.1,6.4,1.4,22.8,1.4C308.7,512,310.1,511.9,312,510z M370.7,510.5
	c2.3-1.6,4.3-10,2.7-11.5c-0.5-0.5-3-1.1-5.6-1.5l-4.8-0.7v4.1v4.1h-12h-12v-12v-12h12h12v3.6v3.7l4.7-0.7c2.6-0.3,5.1-1,5.6-1.5
	s0.6-2.8,0.2-5c-1.1-6.7-2.4-7.1-22.5-7.1c-9.6,0-18,0.4-18.6,0.8c-2.7,1.8-3.4,5.6-3.4,18.2s0.7,16.4,3.4,18.2
	c0.6,0.4,9,0.8,18.6,0.8C365.1,512,369,511.7,370.7,510.5z M399.2,503.9l0.3-8.1l11.3,8.1l11.3,8.1h8.1h8.1l-3.9-2.6
	c-15.5-10.5-25.3-17.8-24.7-18.5c0.4-0.4,6.4-4.3,13.1-8.8l12.4-8.1h-7.4h-7.4l-10.1,7c-5.6,3.9-10.4,7-10.7,7s-0.6-3.1-0.6-7v-7h-5
	h-5v19v19h5h4.9L399.2,503.9z M488.1,510.1c2.1-1.7,2.3-2.7,2.3-9.4c0-11.6-0.1-11.7-19.1-11.7H456v-4v-4h12.5
	c11.8,0,12.5,0.1,12.5,2c0,2.1,0.9,2.4,5.9,1.4c2.6-0.6,3.1-1.1,3.1-3.5c0-1.6-0.9-3.8-2-4.9c-1.8-1.8-3.3-2-19.5-2
	c-21.4,0-21.5,0.1-21.5,11c0,10.7,0.4,11,19,11h15v4.5v4.5h-13.5H454v-2.6c0-2.4-0.3-2.6-3.1-2c-1.7,0.3-3.8,0.6-4.5,0.6
	c-2.7,0-1.1,8.2,2,10.2c0.6,0.4,9.3,0.8,19.2,0.8C483.9,512,486,511.8,488.1,510.1z"></path>
<path class="st0 oxdzWeRq_1" d="M127.2,566.8c0.9-1.3,2.7-4.7,4.3-7.7l2.7-5.4l3.9,6.9c2.1,3.8,3.9,7.2,3.9,7.7c0,0.4-3.7,0.7-8.1,0.7h-8.1
	L127.2,566.8z"></path>
<path class="st0 oxdzWeRq_2" d="M182,558v-5h11.3c12.2,0,13.7,0.6,13.7,5c0,4.4-1.5,5-13.7,5H182V558z"></path>
<path class="st0 oxdzWeRq_3" d="M274,493v-12h15h15v12v12h-15h-15V493z"></path>
<path class="st1 oxdzWeRq_4" d="M385.8,383.3L367,365.8v-92.4V181h23.5H414v107.9v107.9l-4.3,2.1c-2.4,1.2-4.5,2.1-4.8,2
	C404.7,400.9,396.1,393,385.8,383.3z"></path>
<path class="st1 oxdzWeRq_5" d="M434,282.5V164h23.5H481l-0.2,103.2l-0.3,103.2l-23.2,15.3L434,400.9V282.5z"></path>
<path class="st1 oxdzWeRq_6" d="M500,238.1V119h23.5H547v103.9v103.9l-22.7,14.8c-12.4,8.2-23,15.1-23.5,15.2C500.4,357,500,303.6,500,238.1z"></path>
<path class="st1 oxdzWeRq_7" d="M323.3,325.2L300,303.5v-93.7V116h23.5H347v115.5c0,63.5-0.1,115.5-0.2,115.4
	C346.6,346.9,336,337.1,323.3,325.2z"></path>
<path class="st1 oxdzWeRq_8" d="M36.7,330.3C36.3,330,36,278.4,36,215.8V102h23.5H83v101.8v101.7l-22.4,12.8c-12.3,7-22.5,12.7-22.8,12.7
	C37.5,331,37,330.7,36.7,330.3z"></path>
<path class="st1 oxdzWeRq_9" d="M567,196.5V80h23.5H614v92.3v92.4l-4.1,1.2c-5.2,1.6-12.4,8.7-13.9,13.8c-0.6,2.1-1,6.3-0.8,9.3l0.3,5.5
	l-13.7,9.3c-7.6,5-14,9.2-14.3,9.2S567,260.6,567,196.5z"></path>
<path class="st1 oxdzWeRq_10" d="M104,175.1V57h23.5H151l-0.2,104.7l-0.3,104.7L133,276.5c-9.6,5.5-20.1,11.6-23.2,13.4l-5.8,3.2V175.1z"></path>
<path class="st1 oxdzWeRq_11" d="M258.5,264.9l-21.5-20v-4.5c0-2.5-0.7-6.1-1.5-8.1c-1.3-3.1-1.5-15.5-1.5-90.4V55h23.5H281v115
	c0,63.3-0.2,115-0.5,115C280.3,285,270.4,276,258.5,264.9z"></path>
<path class="st1 oxdzWeRq_12" d="M169,136.5V18h23.5H216v100.4v100.3l-5,0.5c-9.5,0.9-17.9,9.2-18.8,18.7l-0.4,4.8l-10.8,6.2
	c-5.9,3.3-11,6.1-11.4,6.1C169.3,255,169,201.7,169,136.5z"></path>
<style data-made-with="vivus-instant">.oxdzWeRq_0{stroke-dasharray:4807 4809;stroke-dashoffset:4808;animation:oxdzWeRq_draw 4500ms ease-in-out 0ms forwards;}.oxdzWeRq_1{stroke-dasharray:51 53;stroke-dashoffset:52;animation:oxdzWeRq_draw 4500ms ease-in-out 0ms forwards;}.oxdzWeRq_2{stroke-dasharray:66 68;stroke-dashoffset:67;animation:oxdzWeRq_draw 4500ms ease-in-out 0ms forwards;}.oxdzWeRq_3{stroke-dasharray:108 110;stroke-dashoffset:109;animation:oxdzWeRq_draw 4500ms ease-in-out 0ms forwards;}.oxdzWeRq_4{stroke-dasharray:510 512;stroke-dashoffset:511;animation:oxdzWeRq_draw 4500ms ease-in-out 0ms forwards;}.oxdzWeRq_5{stroke-dasharray:546 548;stroke-dashoffset:547;animation:oxdzWeRq_draw 4500ms ease-in-out 0ms forwards;}.oxdzWeRq_6{stroke-dasharray:548 550;stroke-dashoffset:549;animation:oxdzWeRq_draw 4500ms ease-in-out 0ms forwards;}.oxdzWeRq_7{stroke-dasharray:530 532;stroke-dashoffset:531;animation:oxdzWeRq_draw 4500ms ease-in-out 0ms forwards;}.oxdzWeRq_8{stroke-dasharray:533 535;stroke-dashoffset:534;animation:oxdzWeRq_draw 4500ms ease-in-out 0ms forwards;}.oxdzWeRq_9{stroke-dasharray:538 540;stroke-dashoffset:539;animation:oxdzWeRq_draw 4500ms ease-in-out 0ms forwards;}.oxdzWeRq_10{stroke-dasharray:547 549;stroke-dashoffset:548;animation:oxdzWeRq_draw 4500ms ease-in-out 0ms forwards;}.oxdzWeRq_11{stroke-dasharray:527 529;stroke-dashoffset:528;animation:oxdzWeRq_draw 4500ms ease-in-out 0ms forwards;}.oxdzWeRq_12{stroke-dasharray:549 551;stroke-dashoffset:550;animation:oxdzWeRq_draw 4500ms ease-in-out 0ms forwards;}@keyframes oxdzWeRq_draw{100%{stroke-dashoffset:0;}}@keyframes oxdzWeRq_fade{0%{stroke-opacity:1;}95.40229885057471%{stroke-opacity:1;}100%{stroke-opacity:0;}}</style></svg>
