<!DOCTYPE svg PUBLIC "-//W3C//DTD SVG 20010904//EN" "http://www.w3.org/TR/2001/REC-SVG-20010904/DTD/svg10.dtd">
<svg version="1.0" xmlns="http://www.w3.org/2000/svg" width="642px" height="612px" viewBox="0 0 6420 6120" preserveAspectRatio="xMidYMid meet">
<g id="layer101" fill="#ffffff" stroke="none">
 <path d="M357 6086 c-80 -29 -134 -83 -163 -163 -11 -31 -13 -238 -14 -1119 l0 -1082 73 -4 c60 -3 82 -8 115 -31 63 -41 95 -97 100 -171 l4 -61 755 -434 755 -433 52 26 c65 33 153 36 211 6 l39 -20 65 63 c36 35 415 387 842 784 l776 721 5 56 c6 67 40 124 100 163 37 25 51 28 123 28 72 0 86 -3 123 -28 61 -40 95 -96 100 -168 l4 -59 627 -412 c1120 -736 1013 -670 1050 -657 17 6 61 9 97 7 l64 -4 -2 1411 -3 1410 -21 40 c-28 51 -68 91 -119 119 l-40 21 -2840 2 c-2366 2 -2846 0 -2878 -11z m842 -286 l22 -40 123 0 122 0 23 40 c22 39 23 40 77 40 31 0 54 -4 52 -8 -1 -5 -52 -91 -112 -191 l-109 -182 -50 3 -51 3 -113 188 -112 187 53 0 c51 0 53 -1 75 -40z m621 -30 l0 -70 40 0 c35 0 49 8 119 70 l79 70 72 0 73 0 -88 -67 -88 -68 53 -5 c70 -8 80 -23 80 -122 0 -120 5 -118 -240 -118 l-200 0 0 190 0 190 50 0 50 0 0 -70z m910 35 l0 -35 -160 0 -160 0 0 -45 0 -45 95 0 95 0 0 -35 0 -35 -95 0 -95 0 0 -40 0 -40 160 0 160 0 0 -35 0 -35 -210 0 -210 0 0 190 0 190 210 0 210 0 0 -35z m600 -45 l0 -80 140 0 140 0 0 80 0 80 55 0 55 0 0 -190 0 -190 -55 0 -55 0 0 75 0 75 -140 0 -140 0 0 -75 0 -75 -50 0 -50 0 0 190 0 190 50 0 50 0 0 -80z m650 -110 l0 -190 -50 0 -50 0 0 190 0 190 50 0 50 0 0 -190z m618 174 c20 -14 22 -23 22 -110 l0 -94 -125 0 -125 0 0 35 0 35 75 0 75 0 0 40 0 40 -140 0 -140 0 0 -120 0 -120 140 0 c133 0 140 1 140 20 0 22 15 25 69 14 27 -6 31 -11 31 -40 0 -59 -18 -64 -242 -64 -212 0 -221 2 -234 55 -3 12 -4 84 -2 160 3 122 5 138 22 151 30 22 403 20 434 -2z m282 -64 l0 -80 140 0 140 0 0 80 0 80 55 0 55 0 0 -190 0 -190 -55 0 -55 0 0 75 0 75 -140 0 -140 0 0 -75 0 -75 -50 0 -50 0 0 190 0 190 50 0 50 0 0 -80z m-2959 -659 c21 -17 23 -27 23 -94 0 -116 -1 -117 -191 -117 l-153 0 0 -40 0 -40 125 0 c118 0 125 1 125 20 0 21 9 24 59 14 26 -6 31 -11 31 -35 0 -16 -9 -38 -20 -49 -18 -18 -33 -20 -195 -20 -214 0 -215 1 -215 110 0 107 4 110 190 110 l150 0 0 45 0 45 -135 0 -135 0 0 -26 c0 -24 -3 -26 -31 -20 -17 3 -38 6 -45 6 -27 0 -11 82 20 102 6 4 93 8 192 8 163 0 184 -2 205 -19z m429 -136 l0 -155 90 0 90 0 0 -35 0 -35 -235 0 -235 0 0 35 0 35 90 0 90 0 0 155 0 155 55 0 55 0 0 -155z m770 135 c18 -18 20 -33 20 -170 0 -204 19 -190 -249 -190 -226 0 -234 2 -247 55 -3 12 -4 84 -2 160 3 122 5 138 22 151 16 11 64 14 228 14 195 0 209 -1 228 -20z m587 5 c23 -16 43 -100 27 -115 -5 -5 -30 -11 -56 -15 l-48 -7 0 41 0 41 -120 0 -120 0 0 -120 0 -120 120 0 120 0 0 36 0 37 47 -7 c26 -3 51 -10 56 -15 5 -5 6 -28 2 -50 -11 -67 -24 -71 -225 -71 -96 0 -180 4 -186 8 -27 18 -34 56 -34 182 0 126 7 164 34 182 6 4 90 8 186 8 141 0 180 -3 197 -15z m285 -66 l3 -81 113 81 113 81 81 0 81 0 -39 -26 c-155 -105 -253 -178 -247 -185 4 -4 64 -43 131 -88 l124 -81 -74 0 -74 0 -101 70 c-56 39 -104 70 -107 70 -3 0 -6 -31 -6 -70 l0 -70 -50 0 -50 0 0 190 0 190 50 0 49 0 3 -81z m889 62 c21 -17 23 -27 23 -94 0 -116 -1 -117 -191 -117 l-153 0 0 -40 0 -40 125 0 c118 0 125 1 125 20 0 21 9 24 59 14 26 -6 31 -11 31 -35 0 -16 -9 -38 -20 -49 -18 -18 -33 -20 -195 -20 -214 0 -215 1 -215 110 0 107 4 110 190 110 l150 0 0 45 0 45 -135 0 -135 0 0 -26 c0 -24 -3 -26 -31 -20 -17 3 -38 6 -45 6 -27 0 -11 82 20 102 6 4 93 8 192 8 163 0 184 -2 205 -19z"/>
 <path d="M1272 5668 c9 -13 27 -47 43 -77 l27 -54 39 69 c21 38 39 72 39 77 0 4 -37 7 -81 7 l-81 0 14 -22z"/>
 <path d="M1820 5580 l0 -50 113 0 c122 0 137 6 137 50 0 44 -15 50 -137 50 l-113 0 0 -50z"/>
 <path d="M2740 4930 l0 -120 150 0 150 0 0 120 0 120 -150 0 -150 0 0 -120z"/>
 <path d="M3858 3833 l-188 -175 0 -924 0 -924 235 0 235 0 0 1079 0 1079 -43 21 c-24 12 -45 21 -48 20 -2 0 -88 -79 -191 -176z"/>
 <path d="M4340 2825 l0 -1185 235 0 235 0 -2 1032 -3 1032 -232 153 -233 152 0 -1184z"/>
 <path d="M5000 2381 l0 -1191 235 0 235 0 0 1039 0 1039 -227 148 c-124 82 -230 151 -235 152 -4 2 -8 -532 -8 -1187z"/>
 <path d="M3233 3252 l-233 -217 0 -937 0 -938 235 0 235 0 0 1155 c0 635 -1 1155 -2 1154 -2 0 -108 -98 -235 -217z"/>
 <path d="M367 3303 c-4 -3 -7 -519 -7 -1145 l0 -1138 235 0 235 0 0 1018 0 1017 -224 128 c-123 70 -225 127 -228 127 -3 0 -8 -3 -11 -7z"/>
 <path d="M5670 1965 l0 -1165 235 0 235 0 0 923 0 924 -41 12 c-52 16 -124 87 -139 138 -6 21 -10 63 -8 93 l3 55 -137 93 c-76 50 -140 92 -143 92 -3 0 -5 -524 -5 -1165z"/>
 <path d="M1040 1751 l0 -1181 235 0 235 0 -2 1047 -3 1047 -175 101 c-96 55 -201 116 -232 134 l-58 32 0 -1180z"/>
 <path d="M2585 2649 l-215 -200 0 -45 c0 -25 -7 -61 -15 -81 -13 -31 -15 -155 -15 -904 l0 -869 235 0 235 0 0 1150 c0 633 -2 1150 -5 1150 -2 0 -101 -90 -220 -201z"/>
 <path d="M1690 1365 l0 -1185 235 0 235 0 0 1004 0 1003 -50 5 c-95 9 -179 92 -188 187 l-4 48 -108 62 c-59 33 -110 61 -114 61 -3 0 -6 -533 -6 -1185z"/>
 </g>

</svg>