<svg id="Layer_1" data-name="Layer 1" xmlns="http://www.w3.org/2000/svg" viewBox="0 0 721.4 565.71"><defs><style>.cls-1{fill:none;stroke:#fff;stroke-miterlimit:10;stroke-width:8px;}</style></defs><title>bootcamp-white-outlinesvg</title><path class="cls-1" d="M55.5,419.31c.36-3.51.76-7,1.08-10.53,5.21-57.35,27.64-107,66.93-149,5.55-5.95,11.55-11.51,17.64-16.91a9.84,9.84,0,0,0,3.63-8.22q-.15-54.75-.06-109.48v-4h24V221.58c45.56-28.34,94.43-42.45,147.69-39.54,53,2.9,100.66,20.33,142.43,54L444,254.69c-6.27-4.4-12.24-8.85-18.46-12.9a216.13,216.13,0,0,0-101.77-35C268,202.28,217.47,216.44,172,249a6.85,6.85,0,0,0-3.2,6.21c.1,28.84.06,57.67.06,86.51v3.43c1.1-1.43,1.76-2.21,2.33-3.06,25.95-38.1,61.61-61.71,107-69.15,46-7.52,87.94,3.47,124.6,32.36,33,26,52.91,60.19,58.72,101.73,7,49.95-6.8,94.1-40.92,131.39-23.69,25.9-53.16,42.33-87.73,48.24-49.14,8.41-93.53-2.8-131.92-35.27-30.48-25.78-48.55-58.6-54.55-98a153.5,153.5,0,0,1-1.65-22.57c-.14-51-.07-102-.07-153V274l-1-.42C120.44,298,102.41,325.75,91.8,358,71.57,419.62,76,479.6,107.1,536.46c33.16,60.64,84.24,99.08,152.15,112.9s129.46-1.87,184.73-44l7.34,9.18,7.47,9.33c-.87.78-1.61,1.53-2.43,2.17-34.3,26.66-72.93,43.32-115.91,49.6-9.81,1.44-19.78,1.75-29.67,2.6-1.16.1-2.29.38-3.43.57h-6.57c-1-.2-2.08-.48-3.14-.59-12.44-1.25-25-1.63-37.3-3.85-53.66-9.72-99.46-34.41-136.89-74.13-39.68-42.12-61.84-92.19-66.89-149.83-.31-3.62-.71-7.24-1.06-10.86Zm383.64,10.93c0-74.32-60.64-135.25-134.61-135.34-74.79-.09-134.41,60.13-135.65,132.82C167.62,502.1,227.59,565,304.08,565.15,378.24,565.26,439.14,504.28,439.14,430.24Z" transform="translate(-51.5 -117.15)"/><path class="cls-1" d="M629.63,589.87c4.42-9.75,8.5-18.77,12.58-27.79q10.08-22.23,20.16-44.46c2-4.29,5-5.89,8.67-4.79,3.42,1,5,3.36,5,7.49q.08,35.79.1,71.57c0,6.06-.11,12.13-.11,18.19,0,2-.66,3.19-2.88,3.16-3.25,0-6.5,0-10.46,0-.12-10.06-.29-20.06-.36-30.06s0-20-.56-30.33c-.4.79-.84,1.57-1.21,2.39-7.92,17.43-15.86,34.86-23.69,52.33-1.46,3.24-3.29,5.69-7.14,5.74-4,.06-5.91-2.47-7.41-5.8q-11.73-26.06-23.64-52a5.29,5.29,0,0,0-1.81-2.38V613.3H583.25c-.07-.8-.18-1.56-.18-2.32q0-45.33,0-90.66c0-2.89.76-5.31,3.4-6.8,2.32-1.31,4.9-1.67,7,0a14,14,0,0,1,3.68,4.88c8.12,17.67,16.11,35.4,24.14,53.11C623.94,577.41,626.62,583.26,629.63,589.87Z" transform="translate(-51.5 -117.15)"/><path class="cls-1" d="M493.07,432.8c.49-16.15,7.07-31.31,22.35-41.54,18.68-12.52,42.05-8.24,56.75,9.78,17.18,21.07,14.73,54.79-5.32,73.12-18.33,16.76-45.47,14.62-61.57-4.79C496.93,459.3,493.24,447.64,493.07,432.8Zm13.85.83c.19,10.26,2.48,18.94,8.59,26.3,14.36,17.31,33.5,13,43.32,2.79,14.92-15.46,14.64-41.12-.61-56.22a27.86,27.86,0,0,0-37.87-1.68C511.27,412.54,507.21,422.71,506.92,433.63Z" transform="translate(-51.5 -117.15)"/><path class="cls-1" d="M588.44,428.92c.25-11.54,6.45-26,20.21-36.32,21.47-16.1,51.23-8.28,64,16.32a53.47,53.47,0,0,1,6.07,22.22c.81,17.42-4.35,32.63-17.87,44.14-19.63,16.72-47.89,12.36-63-9.41C591.44,456.6,588.44,446.6,588.44,428.92ZM665,436.05a44.4,44.4,0,0,0-5.19-21.48c-10.16-18.25-32.14-21.87-46.47-7.67-15.92,15.76-14.53,44.17,2.84,58.38a27.31,27.31,0,0,0,35.09-.09C660.21,457.6,665,447.91,665,436.05Z" transform="translate(-51.5 -117.15)"/><path class="cls-1" d="M705.36,570v43.35H691.78c-.13-3-.38-5.91-.38-8.85q.06-41.76.19-83.52c0-6,2.41-8.43,8.25-8.46,12.43-.06,24.86-.2,37.29-.07,13,.15,23.16,5.64,29,17.41,7.61,15.24-1.35,33.52-18.7,38.56a42.22,42.22,0,0,1-10.86,1.51c-9.25.21-18.5.07-27.75.07Zm.16-13.86c10.48,0,20.71.15,30.93-.09a26.13,26.13,0,0,0,9.5-2c5-2.15,8.49-6,8.93-11.72s-2.2-9.85-6.85-12.69c-2.23-1.36-4.85-2.74-7.37-2.89-8.61-.49-17.26-.47-25.9-.61-3,0-6.09,0-9.24,0Z" transform="translate(-51.5 -117.15)"/><path class="cls-1" d="M533.09,536.75c-2.77,6.27-5.36,12.14-7.94,18-8.23,18.7-16.49,37.39-24.62,56.14-.9,2.08-2,2.77-4.22,2.66-3.74-.18-7.49-.05-11.7-.05,1.38-3.5,2.47-6.55,3.76-9.51q18.81-42.93,37.69-85.83c2.13-4.86,5.69-7,9.49-5.06a11,11,0,0,1,4.54,5.1c7.47,16.66,14.72,33.41,22,50.13q9,20.58,18,41.18c.47,1.07.9,2.17,1.56,3.77-4.85,0-9.36.12-13.85-.11-.75,0-1.65-1.48-2.08-2.45q-15.54-35.12-31-70.25C534.3,539.41,533.8,538.33,533.09,536.75Z" transform="translate(-51.5 -117.15)"/><path class="cls-1" d="M678.57,398V384.6H757.8v13.17H725.47V485H711.56V398Z" transform="translate(-51.5 -117.15)"/></svg>