<svg xmlns="http://www.w3.org/2000/svg" data-name="Layer 1" viewBox="0 0 713.4 557.71">
  <path d="M0 298.16c.36-3.51.76-7 1.08-10.53 5.21-57.35 27.64-107 66.93-149 5.55-5.95 11.55-11.51 17.64-16.91a9.84 9.84 0 003.63-8.22q-.15-54.75-.06-109.48v-4h24v100.41c45.56-28.34 94.43-42.45 147.69-39.54 53 2.9 100.66 20.33 142.43 54l-14.84 18.65c-6.27-4.4-12.24-8.85-18.46-12.9a216.13 216.13 0 00-101.77-35c-55.77-4.51-106.3 9.65-151.77 42.21a6.85 6.85 0 00-3.2 6.21c.1 28.84.06 57.67.06 86.51V224c1.1-1.43 1.76-2.21 2.33-3.06 25.95-38.1 61.61-61.71 107-69.15 46-7.52 87.94 3.47 124.6 32.36 33 26 52.91 60.19 58.72 101.73 7 49.95-6.8 94.1-40.92 131.39-23.69 25.9-53.16 42.33-87.73 48.24-49.14 8.41-93.53-2.8-131.92-35.27-30.48-25.78-48.55-58.6-54.55-98a153.5 153.5 0 01-1.65-22.57c-.14-51-.07-102-.07-153v-3.82l-1-.42c-23.23 24.42-41.26 52.17-51.87 84.42-20.23 61.62-15.8 121.6 15.3 178.46 33.16 60.64 84.24 99.08 152.15 112.9s129.46-1.87 184.73-44l7.34 9.18 7.47 9.33c-.87.78-1.61 1.53-2.43 2.17-34.3 26.66-72.93 43.32-115.91 49.6-9.81 1.44-19.78 1.75-29.67 2.6-1.16.1-2.29.38-3.43.57h-6.57c-1-.2-2.08-.48-3.14-.59-12.44-1.25-25-1.63-37.3-3.85-53.66-9.72-99.46-34.41-136.89-74.13C28.27 436.97 6.11 386.9 1.06 329.26.75 325.64.35 322.02 0 318.4zm383.64 10.93c0-74.32-60.64-135.25-134.61-135.34-74.79-.09-134.41 60.13-135.65 132.82-1.26 74.38 58.71 137.28 135.2 137.43 74.16.11 135.06-60.87 135.06-134.91zM574.13 468.72c4.42-9.75 8.5-18.77 12.58-27.79l20.16-44.46c2-4.29 5-5.89 8.67-4.79 3.42 1 5 3.36 5 7.49q.08 35.79.1 71.57c0 6.06-.11 12.13-.11 18.19 0 2-.66 3.19-2.88 3.16h-10.46c-.12-10.06-.29-20.06-.36-30.06s0-20-.56-30.33c-.4.79-.84 1.57-1.21 2.39-7.92 17.43-15.86 34.86-23.69 52.33-1.46 3.24-3.29 5.69-7.14 5.74-4 .06-5.91-2.47-7.41-5.8q-11.73-26.06-23.64-52a5.29 5.29 0 00-1.81-2.38v60.17h-13.62c-.07-.8-.18-1.56-.18-2.32v-90.66c0-2.89.76-5.31 3.4-6.8 2.32-1.31 4.9-1.67 7 0a14 14 0 013.68 4.88c8.12 17.67 16.11 35.4 24.14 53.11 2.65 5.9 5.33 11.75 8.34 18.36zM437.57 311.65c.49-16.15 7.07-31.31 22.35-41.54 18.68-12.52 42.05-8.24 56.75 9.78 17.18 21.07 14.73 54.79-5.32 73.12-18.33 16.76-45.47 14.62-61.57-4.79-8.35-10.07-12.04-21.73-12.21-36.57zm13.85.83c.19 10.26 2.48 18.94 8.59 26.3 14.36 17.31 33.5 13 43.32 2.79 14.92-15.46 14.64-41.12-.61-56.22a27.86 27.86 0 00-37.87-1.68c-9.08 7.72-13.14 17.89-13.43 28.81zM532.94 307.77c.25-11.54 6.45-26 20.21-36.32 21.47-16.1 51.23-8.28 64 16.32a53.47 53.47 0 016.07 22.22c.81 17.42-4.35 32.63-17.87 44.14-19.63 16.72-47.89 12.36-63-9.41-6.41-9.27-9.41-19.27-9.41-36.95zm76.56 7.13a44.4 44.4 0 00-5.19-21.48c-10.16-18.25-32.14-21.87-46.47-7.67-15.92 15.76-14.53 44.17 2.84 58.38a27.31 27.31 0 0035.09-.09c8.94-7.59 13.73-17.28 13.73-29.14zM649.86 448.85v43.35h-13.58c-.13-3-.38-5.91-.38-8.85q.06-41.76.19-83.52c0-6 2.41-8.43 8.25-8.46 12.43-.06 24.86-.2 37.29-.07 13 .15 23.16 5.64 29 17.41 7.61 15.24-1.35 33.52-18.7 38.56a42.22 42.22 0 01-10.86 1.51c-9.25.21-18.5.07-27.75.07zm.16-13.86c10.48 0 20.71.15 30.93-.09a26.13 26.13 0 009.5-2c5-2.15 8.49-6 8.93-11.72s-2.2-9.85-6.85-12.69c-2.23-1.36-4.85-2.74-7.37-2.89-8.61-.49-17.26-.47-25.9-.61h-9.24zM477.59 415.6c-2.77 6.27-5.36 12.14-7.94 18-8.23 18.7-16.49 37.39-24.62 56.14-.9 2.08-2 2.77-4.22 2.66-3.74-.18-7.49-.05-11.7-.05 1.38-3.5 2.47-6.55 3.76-9.51q18.81-42.93 37.69-85.83c2.13-4.86 5.69-7 9.49-5.06a11 11 0 014.54 5.1c7.47 16.66 14.72 33.41 22 50.13q9 20.58 18 41.18c.47 1.07.9 2.17 1.56 3.77-4.85 0-9.36.12-13.85-.11-.75 0-1.65-1.48-2.08-2.45q-15.54-35.12-31-70.25c-.42-1.06-.92-2.14-1.63-3.72zM623.07 276.85v-13.4h79.23v13.17h-32.33v87.23h-13.91v-87z"/>
</svg>
